<svg xmlns="http://www.w3.org/2000/svg" width="36" height="36" viewBox="0 0 36 36">
  <g fill="none" fill-rule="evenodd">
    <circle cx="13.5" cy="13.5" r="6" fill="#43AA8B" fill-rule="nonzero"/>
    <path fill="#43AA8B" fill-rule="nonzero" d="M13.5,22.5 C9.495,22.5 1.5,24.51 1.5,28.5 L1.5,31.5 L25.5,31.5 L25.5,28.5 C25.5,24.51 17.505,22.5 13.5,22.5 Z M25.14,8.04 L22.62,10.575 C23.88,12.345 23.88,14.64 22.62,16.41 L25.14,18.945 C28.17,15.915 28.17,11.34 25.14,8.04 Z M30.105,3 L27.66,5.445 C31.815,9.975 31.815,16.785 27.66,21.555 L30.105,24 C35.955,18.165 35.97,9.075 30.105,3 Z"/>
  </g>
</svg>
