<svg xmlns="http://www.w3.org/2000/svg" width="48" height="48" viewBox="0 0 48 48">
  <g fill="#FF6F59">
    <path d="M13.64,26 L22,26 L22,22 L13.64,22 C12.8,19.68 10.6,18 8,18 C4.68,18 2,20.68 2,24 C2,27.32 4.68,30 8,30 C10.6,30 12.8,28.32 13.64,26 Z M8,26 C6.9,26 6,25.1 6,24 C6,22.9 6.9,22 8,22 C9.1,22 10,22.9 10,24 C10,25.1 9.1,26 8,26 Z"/>
    <path d="M46,24 L38,18 L38,22 L29.9,22 C28.9,11.9 20.38,4 10,4 L10,8 C18.84,8 26,15.16 26,24 C26,32.84 18.84,40 10,40 L10,44 C20.38,44 28.9,36.1 29.9,26 L38,26 L38,30 L46,24 Z"/>
  </g>
</svg>
