<svg xmlns="http://www.w3.org/2000/svg" width="48" height="48" viewBox="0 0 48 48">
  <g fill="#FF6F59">
    <circle cx="24" cy="12" r="4"/>
    <path d="M42,32 L42,28 C37.52,28 33.68,26.08 30.8,22.64 L28.12,19.44 C27.36,18.52 26.24,18 25.06,18 L22.96,18 C21.78,18 20.66,18.52 19.9,19.44 L17.22,22.64 C14.32,26.08 10.48,28 6,28 L6,32 C11.54,32 16.38,29.66 20,25.5 L20,30 L12.24,33.1 C10.9,33.64 10,34.96 10,36.42 C10,38.4 11.6,40 13.58,40 L18,40 L18,39 C18,36.24 20.24,34 23,34 L29,34 C29.56,34 30,34.44 30,35 C30,35.56 29.56,36 29,36 L23,36 C21.34,36 20,37.34 20,39 L20,40 L34.42,40 C36.4,40 38,38.4 38,36.42 C38,34.96 37.1,33.64 35.76,33.1 L28,30 L28,25.5 C31.62,29.66 36.46,32 42,32 Z"/>
  </g>
</svg>
