<svg xmlns="http://www.w3.org/2000/svg" width="370" height="92" viewBox="0 0 370 92">
  <g fill="none" fill-rule="evenodd">
    <g fill="#FFF" transform="translate(.252 .048)">
      <path d="M72.3790941 70.0460172C71.3022265 70.5795776 70.1727044 70.7046466 69.0078529 70.4084483 66.6625235 69.8096638 65.1566074 67.6175948 65.4175015 65.2772586 65.6977588 62.7657931 67.7808353 61.1869655 69.7613206 61.0514741 68.5845794 62.6992241 68.3478044 64.4559052 69.3217412 66.2532672 70.2970368 68.0516379 71.9055441 68.8316379 73.9611044 68.7744828 73.5262809 69.3097241 73.0014353 69.7377155 72.3790941 70.0460172zM69.6743559 58.5618621C65.6301574 58.5618621 62.3523353 61.8059224 62.3523353 65.8077931 62.3523353 69.8103362 65.6301574 73.0554052 69.6743559 73.0554052 73.7182147 73.0554052 76.9960368 69.8103362 76.9960368 65.8077931 76.9960368 61.8059224 73.7182147 58.5618621 69.6743559 58.5618621L69.6743559 58.5618621zM7.33221176 64.2740172C7.70724706 64.2756983 8.02215441 63.9626897 8.02453235 63.5864741 8.02691029 63.2089138 7.71743824 62.8996034 7.33628824 62.8982586 6.94698529 62.8965776 6.63479559 63.2015172 6.63377647 63.5831121 6.63241765 63.9620172 6.94630588 64.2733448 7.33221176 64.2740172"/>
      <path d="M7.32473824,68.5394741 C6.94358824,68.5401466 6.62902059,68.2247845 6.62936029,67.8425172 C6.62936029,67.47 6.94630588,67.1549741 7.32371912,67.1532931 C7.70758676,67.1519483 8.02826912,67.4652931 8.03030735,67.8418448 C8.03132647,68.2261293 7.71438088,68.5388017 7.32473824,68.5394741 Z M7.91548676,66.0068276 C7.69773529,65.9530345 7.47183088,65.9362241 7.25407941,65.8847845 C6.72923382,65.762069 6.25738235,65.5294138 5.92888676,65.0946983 C5.29737353,64.2615776 5.25932647,63.3612155 5.699925,62.4363103 C5.81474559,62.1955862 6.00158382,61.9881466 6.14731765,61.776 C5.33372206,62.0015948 4.62543529,62.4299224 4.06967647,63.0932586 C3.54075441,63.7239828 3.24487059,64.4538879 3.14601618,65.2658276 C3.06890294,65.901931 3.11340441,66.5276121 3.32877794,67.1314397 C3.84988676,68.5922586 4.87308088,69.5265776 6.38782941,69.9206121 C6.91437353,70.0567759 7.44363529,70.0877069 7.97833235,69.9159052 C9.04806618,69.5706207 9.65308235,68.612431 9.41392941,67.5611121 C9.23116765,66.75825 8.74402941,66.2112414 7.91548676,66.0068276 L7.91548676,66.0068276 Z"/>
      <path d="M11.8061382 66.4311207C11.5866882 67.8798362 10.8335603 68.979569 9.56611765 69.7313276 9.00832059 70.0638362 8.39854853 70.2628707 7.74869118 70.3139741 6.19725441 70.434 4.91520441 69.8886724 3.89574706 68.7398534 3.29990294 68.0674397 2.96121618 67.2726466 2.84265882 66.38775 2.81684118 66.194431 2.81174559 65.9990948 2.80291324 65.8797414 2.81718088 64.7985 3.08826618 63.8752759 3.70347353 63.0650172 4.32853235 62.2429914 5.16047206 61.7265776 6.15886765 61.4599655 6.53763971 61.3591034 6.92456471 61.29825 7.31386765 61.2885 7.78028382 61.2750517 8.23990588 61.3557414 8.68186324 61.5050172 10.0872265 61.9800776 11.0598044 62.9059914 11.5809132 64.2824224 11.8435059 64.9763534 11.9172221 65.697181 11.8061382 66.4311207zM7.32915441 58.5618621C3.28563529 58.5618621.00747352941 61.8059224.00747352941 65.8077931.00747352941 69.8103362 3.28563529 73.0554052 7.32915441 73.0554052 11.3730132 73.0554052 14.6515147 69.8103362 14.6515147 65.8077931 14.6515147 61.8059224 11.3730132 58.5618621 7.32915441 58.5618621L7.32915441 58.5618621zM28.0644618 89.2968879C26.9152368 89.2968879 25.7656721 89.2968879 24.6164471 89.2968879 22.4467456 88.2092586 21.6756132 86.424 21.8824941 84.0930776 22.0642368 82.0496121 23.7192838 80.9942586 25.6314882 81.7661897 25.7398544 81.8098966 25.8495794 81.852931 26.0401544 81.9282414 26.1094544 81.1862328 25.7840162 80.6809138 25.2982368 80.2475431 25.1579382 80.1224741 24.93645 80.065319 24.8386147 79.919069 24.7156412 79.7365086 24.6809912 79.4957845 24.6086338 79.2799397 24.8375956 79.2379138 25.115475 79.0926724 25.2870265 79.1720172 26.1053779 79.551931 26.6298838 80.2122414 26.8972324 81.0658707 26.9597382 81.2672586 27.0052588 81.4733534 27.0433059 81.6199397 27.6153706 81.5856466 28.1639956 81.4572155 28.6745735 81.5442931 29.9165382 81.755431 30.6380735 82.6292328 30.7902618 83.8957241 31.0776529 86.2922069 30.3530603 88.1779914 28.0644618 89.2968879zM30.1220603 77.9646983C29.8550515 79.4964569 29.3577221 79.9062931 27.5701897 80.1029741 27.4835647 78.5587759 28.2944426 77.8638362 30.1220603 77.9646983zM26.3499662 76.3788103C22.3064471 76.3788103 19.0279456 79.6232069 19.0279456 83.6250776 19.0279456 87.6276207 22.3064471 90.8723534 26.3499662 90.8723534 30.3945044 90.8723534 33.6723265 87.6276207 33.6723265 83.6250776 33.6723265 79.6232069 30.3945044 76.3788103 26.3499662 76.3788103L26.3499662 76.3788103zM55.6122309 81.4780603C55.5775809 81.024181 55.5490456 80.640569 55.5194912 80.2512414 55.3669632 80.3443707 55.2008471 80.445569 55.0347309 80.5467672 53.8624059 81.264569 52.6887221 81.9823707 51.5174162 82.7018534 50.9881544 83.0273017 50.8723147 83.5830517 51.2490485 84.0893793 52.7362809 83.1991034 54.2116235 82.3162241 55.6122309 81.4780603M46.1789382 85.1511207C47.1471 85.3138448 48.1139029 85.4883362 49.0803662 85.6581207 49.6405412 85.7562931 50.2007162 85.8524483 50.8108279 85.9590259 50.6202529 85.5219569 50.6345206 85.1306121 50.8560088 84.7345603 50.7785559 84.7116983 50.7364324 84.6945517 50.6939691 84.686819 49.1815985 84.4198707 47.6699074 84.1485517 46.1565176 83.8940431 46.0471324 83.8762241 45.8922265 83.9464914 45.8035632 84.0248276 45.5902279 84.2161293 45.5657691 84.4750086 45.6442412 84.7365776 45.7216941 84.9937759 45.9156662 85.1064052 46.1789382 85.1511207M49.4394353 86.3402845C48.3931412 86.1543621 47.3475265 85.9654138 46.2998735 85.788569 46.1677279 85.7663793 46.0077265 85.7714224 45.8901882 85.8268966 45.6693794 85.9297759 45.5684868 86.2414397 45.6184235 86.5258707 45.6625853 86.7786983 45.8545191 86.9636121 46.1198294 87.010681 47.4120706 87.2386293 48.7043118 87.46725 49.9968926 87.6938534 50.2533706 87.738569 50.5105279 87.7762241 50.8064118 87.8229569 50.6161765 87.3801724 50.6532044 86.9968966 50.8814868 86.5954655 50.3692103 86.5040172 49.9041529 86.4226552 49.4394353 86.3402845M46.2 83.2814741C47.3957647 83.490931 48.5901706 83.70375 49.786275 83.9128707 50.1130721 83.9706983 50.4408882 84.0194483 50.8040338 84.0779483 50.62365 83.643569 50.6348603 83.2586121 50.8607647 82.8575172 50.7459441 82.8319655 50.6695103 82.8111207 50.5917176 82.7976724 49.1500059 82.5445086 47.7079544 82.2936983 46.2665824 82.0405345 45.9224603 81.9806897 45.6748147 82.1498017 45.6177441 82.4917241 45.547425 82.9133276 45.7644971 83.2058276 46.2 83.2814741"/>
      <path d="M56.2067162,85.4439569 C55.9763956,85.5962586 55.7375824,85.7371293 55.5008074,85.8810259 C54.1990544,86.6781724 52.8942441,87.4716207 51.5952088,88.2741466 C51.3329559,88.4361983 51.0774971,88.5071379 50.7615706,88.4496466 C49.1357382,88.1517672 47.50515,87.8764138 45.8782985,87.5815603 C45.2328574,87.4638879 44.8245309,86.6398448 45.0596074,85.944569 C45.1207544,85.7623448 45.2311588,85.5979397 45.3303529,85.4032759 C44.865975,84.7264914 44.8663147,84.2584914 45.3415632,83.5410259 C45.0089912,83.1100086 44.8540853,82.6248621 45.1010515,82.1097931 C45.2138338,81.8737759 45.4010118,81.6263276 45.6218206,81.4962155 C47.1223015,80.6140086 48.642825,79.7654224 50.1497603,78.8922931 C50.4279794,78.7309138 50.7031412,78.7830259 50.9810206,78.8183276 C52.6316515,79.0284569 54.2802441,79.246319 55.9298559,79.4638448 C55.9913426,79.4712414 56.0535088,79.4830086 56.1146559,79.4964569 C56.3300294,79.5455431 56.3456559,79.6174914 56.2423853,79.8064397 C56.1078618,80.0522069 55.9587309,80.3033534 55.8986029,80.5706379 C55.8537618,80.7696724 55.9339324,80.9993017 55.9767353,81.2117845 C55.9879456,81.2692759 56.0572456,81.3422328 56.1139765,81.3576983 C56.3983103,81.4373793 56.3324074,81.5621121 56.1975441,81.7389569 C55.9030191,82.1255948 55.7555868,82.5512328 55.9546544,83.0296552 C55.9896441,83.1133707 56.0800059,83.1913707 56.1645926,83.2354138 C56.3385221,83.325181 56.3541485,83.4142759 56.2332132,83.565569 C55.9702809,83.8947155 55.7990691,84.2584914 55.8928279,84.6952241 C55.9332529,84.8845086 55.9699412,85.0623621 56.2039985,85.1427155 C56.3874397,85.2065948 56.346675,85.3518362 56.2067162,85.4439569 Z M50.6535441,76.3788103 C46.6096853,76.3788103 43.3315235,79.6232069 43.3315235,83.6250776 C43.3315235,87.6276207 46.6096853,90.8723534 50.6535441,90.8723534 C54.6974029,90.8723534 57.9755647,87.6276207 57.9755647,83.6250776 C57.9755647,79.6232069 54.6974029,76.3788103 50.6535441,76.3788103 L50.6535441,76.3788103 Z"/>
      <path d="M51.3733809 84.6790862C50.9745662 84.9315776 50.8774103 85.5599483 51.2585603 85.9563362 52.7308456 85.0754741 54.2065279 84.19125 55.6149485 83.3490517 55.5789397 82.9089569 55.5483662 82.5283707 55.5143956 82.1222328 54.1497971 82.9617414 52.7512279 83.8049483 51.3733809 84.6790862M51.3944426 86.539319C50.9609779 86.8166897 50.9185147 87.3932845 51.2449721 87.8357328 52.7339029 86.9451207 54.2095853 86.0622414 55.6108721 85.2240776 55.5775809 84.7728879 55.5493853 84.387931 55.5201706 83.9915431 54.1545529 84.8313879 52.7634574 85.6688793 51.3944426 86.539319M15.5232 18.7677414C15.1359353 18.0596897 14.2414897 17.7964397 13.5260691 18.1803879L11.8706824 19.0699914C11.1549221 19.4539397 10.8899515 20.3395086 11.2775559 21.0472241L17.0943397 31.6595948C17.4826235 32.3673103 18.3763897 32.6308966 19.0918103 32.2462759L20.7471971 31.3580172C21.4626176 30.9730603 21.7279279 30.0881638 21.3406632 29.3807845L15.5232 18.7677414M62.2242662 5.70307759L60.3419559 5.75384483C59.5276809 5.77637069 58.8866559 6.44643103 58.9077176 7.25164655L59.2392706 19.3201293C59.2610118 20.1253448 59.9380456 20.7604397 60.7519809 20.7392586L62.6342912 20.687819C63.4482265 20.6663017 64.0892515 19.9959052 64.0675103 19.1916983L63.7373162 7.1225431C63.7152353 6.31732759 63.0378618 5.68223276 62.2242662 5.70307759M28.6436603 27.2129224L25.3155618 21.1410259C26.2911971 20.5876293 27.5824191 19.9121897 29.18685 19.1916983L29.2924985 18.6897414C29.0044279 18.0314483 28.7163574 17.3553362 28.441875 16.6755259 26.6292044 17.4733448 25.1694882 18.2301466 24.0647647 18.8561638L21.3427015 13.8907241C20.8555632 13.0021293 19.7324956 12.6713017 18.8343132 13.1540948L16.7563324 14.2699655C15.8591691 14.7520862 15.5248985 15.8639224 16.0127162 16.7525172L23.3133353 30.0743793C23.8008132 30.9636466 24.9238809 31.2917845 25.8224029 30.81L27.8997044 29.6937931C28.7978868 29.212681 29.1314779 28.101181 28.6436603 27.2129224M57.8814662 20.8976121L57.4663456 5.74880172C57.4384897 4.73715517 56.5882059 3.94068103 55.5667103 3.96791379L53.2037162 4.0314569C52.1829 4.05936207 51.3774574 4.90021552 51.4049735 5.91085345L51.5592 11.5581207C50.1229235 11.5641724 48.2110588 11.6482241 45.8901882 11.925931L46.1398721 12.4961379C46.3864985 12.481681 46.6324456 12.5045431 46.875675 12.5633793 47.7551735 12.7768707 48.4485132 13.4344914 48.6992162 14.2682845 49.8389294 14.1875948 50.8223779 14.158681 51.6301985 14.1556552L51.8194147 21.0610086C51.8472706 22.072319 52.6972147 22.8691293 53.71905 22.8415603L56.0817044 22.7786897C57.1032 22.7514569 57.9089824 21.9085862 57.8814662 20.8976121"/>
      <path d="M18.0764294 11.7695948C18.8309162 11.3654741 19.7043 11.253181 20.5369191 11.4559138 21.2523397 11.630069 21.8892882 12.0288103 22.3560441 12.5801897 27.3361324 6.15897414 35.8573147 2.88768103 44.2956088 4.93988793 46.2913809 5.42537069 48.1509309 6.17712931 49.8474221 7.14675L49.8144706 5.95355172C49.7896721 5.04478448 50.1239426 4.18039655 50.7557956 3.51907759 50.8658603 3.40476724 50.9823794 3.29919828 51.1046735 3.20203448 49.2981176 2.25292241 47.3475265 1.50755172 45.2729426 1.00256897 34.4556882-1.62757759 23.521575 3.07562069 17.8416926 11.8953362L18.0764294 11.7695948M34.8331015 18.8706207C35.1897926 19.6623879 35.9283132 20.0513793 36.7609324 19.9471552 37.5497294 19.8476379 38.1873574 19.2720517 38.4312662 18.4964224 38.3646838 18.1302931 38.3629853 17.7379397 38.2209882 17.4024052 37.3989 15.4756034 36.5550706 13.5585517 35.6962941 11.6472155 35.2533176 10.6641466 34.1696559 10.2704483 33.2055706 10.7007931 32.2954985 11.1076034 31.8800382 12.1653103 32.2938 13.1214828 33.1274382 15.0422328 33.9733059 16.9599569 34.8331015 18.8706207"/>
      <path d="M37.9583956 15.4675345C37.9961029 15.5515862 38.0501162 15.6289138 38.1374206 15.7795345 38.6204824 14.2134828 39.9568853 14.0487414 41.2708676 13.7797759 40.9321809 13.0038103 40.6135368 12.2718879 40.2952324 11.5413103 39.9473735 10.7421466 39.6076676 9.93861207 39.252675 9.14213793 38.7937324 8.11334483 37.7474382 7.67291379 36.7701044 8.0874569 35.8005838 8.49762931 35.3932765 9.56743966 35.8352338 10.596569 36.5353676 12.2224655 37.24875 13.8443276 37.9583956 15.4675345M30.5164588 19.6664224C30.7471191 20.1811552 31.1731103 20.5005517 31.7339647 20.6346983 32.4415721 20.7954052 33.0639132 20.6323448 33.5486735 20.09475 34.0402279 19.5507672 34.1903779 18.8944914 33.9169147 18.214681 33.4508382 17.0551034 32.9507912 15.9072931 32.4307015 14.7705776 32.0162603 13.8614741 30.9461868 13.48425 30.0225265 13.8745862 29.1158515 14.2595431 28.6538515 15.2590862 29.0224324 16.1802931 29.4905471 17.355 30.0001059 18.5125603 30.5164588 19.6664224M41.6883662 13.3719569C41.735925 13.4771897 41.9458632 13.5985603 42.0515118 13.5767069 43.1868088 13.3410259 44.3159912 13.0771034 45.4893353 12.8115 45.0072926 11.7154655 44.5361206 10.6375862 44.0612118 9.56105172 43.9080044 9.21274138 43.7656676 8.86039655 43.5903794 8.52351724 43.1273603 7.63626724 42.093975 7.27148276 41.2022471 7.66450862 40.2649985 8.07837931 39.8260985 9.06548276 40.2137029 10.0122414 40.6763824 11.1439138 41.181525 12.2584397 41.6883662 13.3719569M32.253375 49.4745259C32.8169471 49.4980603 33.3971647 49.5726983 34.0174676 49.7041552 34.2695294 49.7579483 34.4312294 49.7502155 34.621125 49.6594397 35.0043132 49.4768793 35.348775 49.2583448 35.660625 48.9998017 35.5940426 48.829681 35.5142118 48.6434224 35.4343809 48.4722931L33.6733456 45.6552155C27.2067044 43.9247586 22.2177838 39.3812586 19.7277397 33.6926379 19.0853559 34.0022845 18.3556676 34.0792759 17.6589309 33.9098276 16.8222353 33.7060862 16.106475 33.1604224 15.6957706 32.4103448L14.293125 29.8524828C15.9862191 38.9778103 22.7490838 46.7872241 32.253375 49.4745259M40.7456824 47.0592155L40.7816912 47.055181 41.1115456 48.5116293 41.1193588 48.5432328C41.1740515 48.7294914 41.2858147 48.972569 41.4179603 49.1131034 41.4736721 49.1551293 41.5321015 49.1981638 41.5929088 49.2398534 41.6730794 49.2892759 41.7501926 49.3403793 41.8286647 49.3948448 41.9879868 49.4930172 42.1503662 49.5821121 42.3130853 49.6601121 42.5019618 49.7502155 42.6650206 49.7576121 42.9157235 49.7041552 43.6756456 49.5424397 44.3774779 49.4630948 45.0589279 49.4630948 45.3826676 49.4630948 45.7006324 49.482931 46.0135015 49.52025 54.5384206 47.1587328 61.5774662 40.4433362 63.8361706 31.3449052 64.6405941 28.1082414 64.766625 24.8594741 64.3042853 21.7478793 63.8266588 22.065931 63.2671632 22.2458017 62.6774338 22.2622759L60.7954632 22.3120345C60.6096441 22.3170776 60.4241647 22.3046379 60.2414029 22.277069 60.6391985 24.9025086 60.5372868 27.6446121 59.8588941 30.3776379 57.5916971 39.5090172 49.5810926 45.7786034 40.5659779 46.3478017L40.7456824 47.0592155"/>
      <path d="M64.7051382,58.6943276 C64.7611897,58.8973966 64.8325279,59.0856724 64.9184735,59.2625172 C65.0655662,59.1569483 65.2163956,59.0567586 65.3713015,58.9612759 C65.3315559,58.8146897 65.2989441,58.6654138 65.2792412,58.508069 C65.1124456,57.1491207 64.3280647,56.3348276 62.9981162,56.0177845 C62.4399794,55.8849828 61.8760676,55.7730259 61.3206485,55.6271121 C61.1935985,55.5938276 61.0451471,55.4808621 60.9979279,55.3672241 C60.9704118,55.3026724 60.0871765,54.354569 59.7311647,54.3239741 C58.0713618,54.1820948 56.5223029,54.5539397 54.94335,54.9483103 C53.4075397,55.3315862 51.8836191,55.1493621 50.4755382,54.3754138 C50.2166824,54.2331983 49.9846632,54.0160086 49.7927294,53.789069 C49.5314956,53.4811034 48.1777676,51.9046293 47.8326265,51.7301379 C46.3769868,50.9985517 44.8707309,50.9824138 43.3352603,51.3095431 C42.7397559,51.4359569 42.1975853,51.3942672 41.6618691,51.1380776 C41.4199985,51.0227586 41.1906971,50.895 40.9712471,50.756819 C40.9073824,50.7104224 40.8374029,50.6636897 40.7579118,50.6176293 C40.6329,50.5315603 40.511625,50.4434741 40.3944265,50.350681 C39.8767147,49.8776379 39.6521691,49.2038793 39.5825294,48.9503793 C39.5740368,48.9167586 39.5655441,48.8838103 39.5570515,48.8511983 C39.5567118,48.8505259 39.5567118,48.8481724 39.5567118,48.8481724 C38.8538603,46.0603448 38.1486309,43.2631034 37.4366074,40.4379569 C39.99765,41.0602759 42.4961868,41.6684741 45.0667412,42.2931466 C45.0385456,42.0927672 45.0283544,41.9603017 45.0018574,41.8301897 C44.0190882,37.1135431 43.041075,32.3962241 42.0406412,27.6836121 C41.9509588,27.2636897 42.0457368,27.0360776 42.3772897,26.7704741 C44.2555235,25.2716638 46.1269632,23.7617586 47.7667235,21.9986897 C48.5276647,21.1803621 48.9319147,20.223181 48.7790471,19.1123534 C48.5721662,17.6128707 48.3398074,16.1130517 48.0449426,14.6276897 C47.8564059,13.6752155 46.8824691,13.0458362 45.9098912,13.2452069 C43.895775,13.6594138 41.8898118,14.1146379 39.8947191,14.6061724 C38.91195,14.84925 38.3629853,15.8830862 38.5905882,16.8607759 C38.8232868,17.862 39.7669897,18.5149138 40.7979971,18.3215948 C41.8565206,18.1218879 42.9028147,17.8593103 43.9538647,17.6253103 C44.1722956,17.5765603 44.3910662,17.5291552 44.6468647,17.4726724 C44.6906868,17.7221379 44.7266956,17.9366379 44.7691588,18.1800517 C41.8782618,18.6201466 39.0658368,19.1557241 37.1468382,21.5676724 C36.2799088,20.9288793 35.3881809,20.2722672 34.4944147,19.6129655 C33.0122779,21.7609914 31.416,21.7266983 29.8526735,19.5521121 C29.6505485,20.5183707 29.6206544,21.4382328 29.7820147,22.3691897 C30.1071132,24.2358103 30.9111971,25.9259224 31.7122235,27.620069 C32.6511706,29.6057069 33.5707544,31.5987414 34.4978118,33.5907672 C34.5491074,33.7017155 34.5888529,33.8183793 34.6571338,33.9918621 C32.1820368,33.3900517 29.7636706,32.8020259 27.3456441,32.2136638 C27.3201662,32.2408966 27.2953676,32.2657759 27.2692103,32.2913276 C30.4784118,37.4245345 33.6869338,42.5567328 36.8951162,47.6882586 C36.8951162,47.6882586 37.6625118,49.2798621 37.4379662,49.570681 C36.8635235,50.2155259 36.1701838,50.7430345 35.3419809,51.1380776 C34.8062647,51.3942672 34.2640941,51.4359569 33.6685897,51.3095431 C32.1334588,50.9824138 30.6268632,50.9985517 29.1712235,51.7301379 C28.8257426,51.9046293 27.4723544,53.4811034 27.2111206,53.789069 C27.0191868,54.0160086 26.7868279,54.2331983 26.5279721,54.3754138 C25.1198912,55.1493621 23.5963103,55.3315862 22.0601603,54.9483103 C20.4815471,54.5539397 18.9318088,54.1820948 17.2726853,54.3239741 C16.9166735,54.354569 16.0330985,55.3026724 16.0062618,55.3672241 C15.9583632,55.4808621 15.8105912,55.5938276 15.6835412,55.6271121 C15.1281221,55.7730259 14.5638706,55.8849828 14.0057338,56.0177845 C12.6754456,56.3348276 11.8914044,57.1491207 11.7246088,58.508069 C11.7049059,58.6654138 11.6719544,58.8146897 11.6325485,58.9612759 C11.7871147,59.0567586 11.9382838,59.1569483 12.0853765,59.2625172 C12.1716618,59.0856724 12.2433397,58.8973966 12.2990515,58.6943276 C12.5918779,57.6319138 13.3630103,57.1316379 14.4099838,57.0364914 C15.5819691,56.9295776 16.6384544,56.5883276 17.6113721,55.9078448 C18.4368574,55.329569 19.3846368,55.1577672 20.3551765,55.5642414 C21.4568426,56.0248448 22.6077662,56.2541379 23.7913015,56.265569 C25.7857147,56.2843966 27.5399559,55.7188966 28.6980132,53.9830603 C29.250375,53.1566638 29.9882162,52.768681 30.9692868,52.6947155 C32.345775,52.5911638 33.6516044,52.9650259 34.9689838,53.2319741 C35.6218985,53.3637672 35.8885676,54.0281121 35.6585868,54.6716121 C35.2424471,55.8375776 31.5807574,59.5829224 31.5209691,59.8801293 C31.3701397,60.6392845 31.4883574,61.3433017 31.7305676,62.0503448 C32.1253059,63.2008448 32.0981294,63.3605431 31.1258912,64.0806983 C30.4060544,64.6139224 30.1003191,65.2937328 30.1781118,66.1668621 C30.20325,66.4489397 30.2192162,66.7337069 30.2202353,67.0174655 C30.2229529,67.7403103 29.9080456,68.316569 29.3203544,68.7240517 C28.9908397,68.952 28.6314309,69.1675086 28.2533382,69.2908966 C27.3228838,69.5941552 26.3666118,69.8194138 25.4341191,70.1166207 C23.5830618,70.7056552 22.9433956,71.7028448 23.1580897,73.5893017 C23.2107441,74.0549483 23.2620397,74.520931 23.2851397,74.9882586 C23.3041632,75.3738879 23.3191103,75.7632155 23.29635,76.1468276 C23.3625926,76.1212759 23.4288353,76.0943793 23.4957574,76.0695 C23.5174985,75.9414052 23.5365221,75.8119655 23.5473926,75.6818534 C23.6258647,74.7872069 23.579325,73.8818017 23.5963103,72.9811034 C23.6136353,72.0390517 24.1405191,71.4550603 24.9955588,71.1531466 C25.4551809,70.9907586 25.9406206,70.9023362 26.4168882,70.7910517 C27.3201662,70.578569 28.2370324,70.4145 29.1260426,70.1562931 C30.3683471,69.7955431 31.0555721,70.1435172 31.4221147,71.381431 C31.7098456,72.3503793 31.5029647,73.2648621 31.1615603,74.1743017 C30.7943382,75.154681 30.7488176,76.1206034 31.1150206,77.0861897 C31.3630059,77.2637069 31.6018191,77.4529914 31.8277235,77.6567328 C31.7866191,77.4570259 31.7431368,77.2579914 31.6972765,77.0596293 C31.4954912,76.188181 31.5709059,75.3695172 32.0447956,74.5948966 C32.8288368,73.3156293 33.0856544,71.9684483 32.6053103,70.5096466 C32.2452221,69.4149569 31.8032647,68.3340517 31.8569382,67.1458966 C31.8623735,67.0346121 31.8039441,66.9186207 31.7655574,66.808681 C31.4238132,65.8118276 31.4920941,65.5761466 32.4588971,65.091 C33.2021735,64.7178103 33.5687162,64.1220517 33.6536426,63.3497845 C33.7062971,62.8720345 33.627825,62.3818448 33.6600971,61.9007328 C33.6991632,61.3268276 33.6607765,60.6957672 33.8910971,60.1958276 C34.3344132,59.232931 35.1483485,58.5524483 36.0862765,58.0373793 C36.1742603,57.9896379 36.2680191,57.9462672 36.3631368,57.9136552 C36.6447529,57.8164914 37.61835,56.6313621 37.61835,56.6313621 C37.7943176,56.2030345 38.1143206,55.8698534 38.5015853,55.6607328 C38.8891897,55.8698534 39.2098721,56.2030345 39.3851603,56.6313621 C39.3851603,56.6313621 40.3590971,57.8164914 40.6403735,57.9136552 C40.7358309,57.9462672 40.82925,57.9896379 40.9172338,58.0373793 C41.8558412,58.5524483 42.6690971,59.232931 43.1124132,60.1958276 C43.3430735,60.6957672 43.3050265,61.3268276 43.3437529,61.9007328 C43.3763647,62.3818448 43.2975529,62.8720345 43.3495279,63.3497845 C43.4344544,64.1220517 43.8013368,64.7178103 44.5452926,65.091 C45.5117559,65.5761466 45.5796971,65.8118276 45.2382926,66.808681 C45.1999059,66.9186207 45.1414765,67.0346121 45.1462324,67.1458966 C45.1999059,68.3340517 44.7586279,69.4149569 44.3985397,70.5096466 C43.9185353,71.9684483 44.1750132,73.3156293 44.9590544,74.5948966 C45.4329441,75.3695172 45.5083588,76.188181 45.3065735,77.0596293 C45.2603735,77.2579914 45.2168912,77.4570259 45.1757868,77.6567328 C45.4016912,77.452319 45.6408441,77.2633707 45.8888294,77.0861897 C46.2546926,76.1206034 46.2091721,75.154681 45.8412706,74.1743017 C45.5005456,73.2648621 45.2940044,72.3503793 45.5813956,71.381431 C45.9479382,70.1435172 46.6351632,69.7955431 47.8774676,70.1562931 C48.7668176,70.4145 49.6833441,70.578569 50.5866221,70.7910517 C51.06255,70.9023362 51.5486691,70.9907586 52.0079515,71.1531466 C52.8629912,71.4550603 53.389875,72.0390517 53.4075397,72.9811034 C53.4248647,73.8818017 53.3779853,74.7872069 53.4557779,75.6818534 C53.4669882,75.8119655 53.4860118,75.9414052 53.5077529,76.0695 C53.574675,76.0943793 53.6405779,76.1212759 53.7071603,76.1468276 C53.6840603,75.7632155 53.6993471,75.3738879 53.7187103,74.9882586 C53.7418103,74.520931 53.7931059,74.0549483 53.8457603,73.5893017 C54.0601147,71.7028448 53.4211279,70.7056552 51.5697309,70.1166207 C50.6368985,69.8194138 49.6806265,69.5941552 48.7505118,69.2908966 C48.3724191,69.1675086 48.0123309,68.952 47.6838353,68.7240517 C47.095125,68.316569 46.7808971,67.7403103 46.7836147,67.0174655 C46.7846338,66.7337069 46.8006,66.4489397 46.8257382,66.1668621 C46.9031912,65.2937328 46.5974559,64.6139224 45.8779588,64.0806983 C44.9050412,63.3605431 44.8782044,63.2008448 45.2729426,62.0503448 C45.5154926,61.3433017 45.6337103,60.6392845 45.4828809,59.8801293 C45.4230926,59.5829224 41.7610632,55.8375776 41.3452632,54.6716121 C41.1152824,54.0281121 41.3816118,53.3637672 42.0341868,53.2319741 C43.3519059,52.9650259 44.658075,52.5911638 46.0349029,52.6947155 C47.0146147,52.768681 47.7531353,53.1566638 48.3048176,53.9830603 C49.4635544,55.7188966 51.2177956,56.2843966 53.2122088,56.265569 C54.3960838,56.2541379 55.5470074,56.0248448 56.6486735,55.5642414 C57.6192132,55.1577672 58.5666529,55.329569 59.3921382,55.9078448 C60.3653956,56.5883276 61.4215412,56.9295776 62.5938662,57.0364914 C63.6415191,57.1316379 64.4119721,57.6319138 64.7051382,58.6943276"/>
    </g>
    <path fill="#FFF" d="M0.17013971,23.0105043 L0.175064626,0.108537055 L4.12367993,0.109115077 L4.11953295,19.4204126 L10.4818181,19.4222156 L10.481571,23.0128808 L0.17013971,23.0105043 Z M13.0263826,23.014024 L13.0318245,0.110473242 L23.3767118,0.113612969 L23.3750378,3.54217905 L16.7839205,3.54077665 L16.7827732,9.6225971 L22.8843582,9.62349751 L22.8835901,12.7930985 L16.7814742,12.7922027 L16.7804684,19.5535215 L23.6981128,19.5547307 L23.696726,23.0159272 L13.0263826,23.014024 Z M37.3684928,23.019234 L30.8139186,6.84374167 L30.7162235,6.84353417 L30.7773756,23.0178315 L27.2529825,23.0172679 L27.2578935,0.1137217 L31.7284306,0.115047846 L38.218021,16.3874218 L38.3167779,16.3876201 L38.2876938,0.116725821 L41.6804143,0.117375962 L41.6760249,23.0198649 L37.3684928,23.019234 Z M56.4903737,23.0227611 L49.9352685,6.84727342 L49.8370426,6.84707052 L49.8997827,23.0208278 L46.3748633,23.020795 L46.3797836,0.11830145 L50.8497852,0.119105893 L57.3404421,16.3919969 L57.4381371,16.3922044 L57.4095747,0.12025298 L60.802826,0.120898528 L60.7973841,23.0244493 L56.4903737,23.0227611 Z M71.4400456,3.77849059 L71.3089084,3.77909874 L68.7945034,15.1328617 L73.8851744,15.13356 L71.4400456,3.77849059 Z M75.5145688,23.0271334 L74.3733251,18.1736634 L68.3041251,18.1724828 L67.1278013,23.024949 L63.2121018,23.0240862 L68.9607568,0.122957227 L73.9526756,0.123983498 L79.5932641,23.0276387 L75.5145688,23.0271334 Z M91.3105382,6.856185 C91.3113706,6.16667786 91.2128866,5.59435014 91.0172284,5.14128866 C90.822632,4.68821799 90.5662418,4.3325277 90.2517787,4.07471193 C89.9357136,3.81585736 89.5831434,3.63205828 89.1903564,3.52387315 C88.7996976,3.41619595 88.4079187,3.36221469 88.0160861,3.36244649 L85.7967491,3.36217192 L85.795637,10.4129763 L88.0149785,10.4137772 C88.9712051,10.4139261 89.7596991,10.11762 90.3809915,9.52485429 C91.0006866,8.93157608 91.3103632,8.04254748 91.3105382,6.856185 Z M91.5686683,23.0303573 L87.9810951,13.2594418 L85.7957404,13.2593996 L85.7936152,23.02979 L82.007991,23.0283283 L82.0123758,0.125312998 L88.603493,0.126715399 C89.560786,0.127381404 90.4421871,0.252392882 91.2471516,0.500175539 C92.0521161,0.747958197 92.7431492,1.14146885 93.3191938,1.68124297 C93.8952337,2.2204908 94.346147,2.90030012 94.6724507,3.71908744 C94.9992992,4.53944906 95.1624367,5.52018039 95.1618818,6.66338661 C95.1617065,7.54815866 95.0469965,8.32918074 94.8177655,9.00803173 C94.5901366,9.68792154 94.3010723,10.2646547 93.9537672,10.7392562 C93.605391,11.2128143 93.2185194,11.5956493 92.7947403,11.8872212 C92.3704211,12.1777451 91.9521974,12.3766338 91.5384858,12.4849537 L95.6802841,23.0311042 L91.5686683,23.0303573 Z M104.331968,3.42919767 L104.327216,23.0336695 L100.476818,23.0322418 L100.481574,3.42829625 L96.1405997,3.42848092 L96.1423424,0.128340181 L108.672584,0.131522123 L108.670828,3.43008397 L104.331968,3.42919767 Z M116.531448,23.0354611 L116.536373,0.133493817 L126.880189,0.135590138 L126.879046,3.56415163 L120.287929,3.56274923 L120.286781,9.64456968 L126.389433,9.64598719 L126.388129,12.8150665 L120.285482,12.8141753 L120.283946,19.5754987 L127.200528,19.5767171 L127.201274,23.0389477 L116.531448,23.0354611 Z M146.615705,23.0425757 L146.684856,5.44604428 L146.587161,5.44583678 L141.949251,23.0413654 L138.881996,23.0405313 L134.350535,5.44327273 L134.252309,5.44306983 L134.313764,23.0389977 L130.756991,23.0392404 L130.761902,0.135694276 L136.016113,0.137609423 L140.450444,16.8940973 L140.579993,16.8940292 L144.923727,0.138972181 L150.439687,0.140201908 L150.433714,23.0437573 L146.615705,23.0425757 Z M170.958346,23.047781 L171.027488,5.45019705 L170.930864,5.45103296 L166.292959,23.0470879 L163.225173,23.0462584 L158.692114,5.44848728 L158.596012,5.44826601 L158.657472,23.0447201 L155.100694,23.0444366 L155.105078,0.141421342 L160.35875,0.142288489 L164.792028,16.8998381 L164.922639,16.8997609 L169.266368,0.144177543 L174.781271,0.145942752 L174.776346,23.04791 L170.958346,23.047781 Z M179.441742,23.0496558 L179.447724,0.147153 L189.790479,0.149258507 L189.790928,3.57780622 L183.199811,3.57640382 L183.197071,9.65823805 L189.299718,9.65912927 L189.29895,12.8287303 L183.196834,12.8278345 L183.195292,19.5886316 L190.113472,19.5903625 L190.112621,23.0520806 L179.441742,23.0496558 Z M202.971946,6.88022087 C202.973305,6.19018284 202.874826,5.61838142 202.679167,5.16531993 C202.482978,4.71226304 202.227119,4.35656816 201.912656,4.09875239 C201.597122,3.83989323 201.242959,3.65610793 200.851238,3.54843991 C200.460044,3.440241 200.068791,3.38572886 199.678025,3.38647776 L197.458683,3.3856769 L197.456514,10.4370168 L199.675856,10.4378177 C200.632613,10.437962 201.421633,10.141125 202.041338,9.54889934 C202.661564,8.95561654 202.972302,8.06657875 202.971946,6.88022087 Z M203.228484,23.0544069 L199.641441,13.2834869 L197.456618,13.2834401 L197.454497,23.0543568 L193.668342,23.0528996 L193.673253,0.149353459 L200.265432,0.150746674 C201.223782,0.150877198 202.103064,0.276433343 202.909091,0.524206815 C203.713529,0.772520361 204.403495,1.1655139 204.97954,1.70528803 C205.556111,2.24453126 206.007555,2.92433599 206.334394,3.74364501 C206.660176,4.56348952 206.823318,5.54474715 206.822759,6.68742708 C206.822048,7.57167742 206.707874,8.3532212 206.479704,9.03206301 C206.251014,9.711962 205.961419,10.2886997 205.614109,10.7627749 C205.265737,11.2368593 204.880458,11.6196806 204.455617,11.9112616 C204.030767,12.2017901 203.611482,12.400688 203.199894,12.5089896 L207.341161,23.0551446 L203.228484,23.0544069 Z M208.875059,23.0560857 L208.87554,19.8538543 L216.644934,3.58444411 L209.401289,3.58289715 L209.401361,0.153292254 L220.953605,0.155987315 L220.953089,3.29400599 L213.215014,19.5626189 L220.949248,19.5641324 L220.948684,23.0584809 L208.875059,23.0560857 Z M230.414782,3.81270047 L230.284171,3.81277774 L227.769235,15.1665453 L232.85938,15.1677745 L230.414782,3.81270047 Z M234.489831,23.0608124 L233.348061,18.2078733 L227.279397,18.2072144 L226.103608,23.0602023 L222.186847,23.0593487 L227.935493,0.157167106 L232.928473,0.158184191 L238.568536,23.0623703 L234.489831,23.0608124 Z M246.924967,3.81671575 L246.796475,3.81624835 L244.281008,15.1700205 L249.370622,15.1712543 L246.924967,3.81671575 Z M251.000021,23.0653539 L249.859839,18.2118748 L243.790634,18.2101679 L242.614846,23.0631558 L238.699146,23.062293 L244.446735,0.160646903 L249.438654,0.161673174 L255.079247,23.0658547 L251.000021,23.0653539 Z M257.493443,23.0665488 L257.498359,0.16352897 L261.446974,0.164106992 L261.442827,19.4754045 L267.806169,19.4766721 L267.805401,23.0683944 L257.493443,23.0665488 Z M4.57082416,31.6627642 C4.57097653,31.0769511 4.4307683,30.650253 4.14968711,30.3847797 C3.86857349,30.1156224 3.50901082,29.9818857 3.0725779,29.981977 L2.01016193,29.9816941 L2.00989256,33.4491969 L3.07229926,33.4484272 C3.50874145,33.4493885 3.86792121,33.2983808 4.14878139,32.9959396 C4.43015857,32.691915 4.57066716,32.248051 4.57082416,31.6627642 Z M6.33493815,31.6396075 C6.33507113,32.1975223 6.24962524,32.6840695 6.07862828,33.1024068 C5.90709579,33.5202224 5.68131684,33.8674519 5.40130534,34.1456743 C5.12182937,34.4244184 4.79978677,34.6324755 4.43672391,34.7645687 C4.07315331,34.8992979 3.69995973,34.9662131 3.31609525,34.9669023 L2.00944637,34.966627 L2.00885537,39.3625889 L0.166481205,39.3616849 L0.168762957,28.4028268 L3.22167906,28.4032587 C3.57422501,28.4033667 3.93731212,28.4549645 4.31147593,28.5585738 C4.6845872,28.6632447 5.02010835,28.840349 5.31593894,29.0925362 C5.61125252,29.346307 5.85522815,29.6789459 6.0473442,30.0915101 C6.23893861,30.5051316 6.33479863,31.0206377 6.33493815,31.6396075 Z M10.939307,39.3648068 L10.9415749,28.4043698 L15.8904954,28.4062944 L15.8911287,30.0463514 L12.7373322,30.0457396 L12.7358773,32.9563894 L15.6560682,32.9579694 L15.6556127,34.4743469 L12.7354311,34.4738194 L12.7347066,37.7086857 L16.0451328,37.7095215 L16.0448479,39.3659028 L10.939307,39.3648068 Z M25.2416559,31.6281533 C25.241941,31.2986646 25.1954531,31.0237931 25.1022293,30.8077493 C25.0079345,30.590662 24.8859096,30.4201322 24.7345713,30.2972262 C24.5842808,30.1727321 24.4152022,30.0852441 24.2278526,30.0331786 C24.0410431,29.9821611 23.8523277,29.955898 23.665963,29.9554049 L22.6040826,29.9556437 L22.6035194,33.3294612 L23.6648782,33.3302796 C24.1225518,33.3305309 24.5003872,33.1877832 24.7973505,32.9052034 C25.0932473,32.6221066 25.2418723,32.1955414 25.2416559,31.6281533 Z M25.3650086,39.3679072 L23.6481954,34.6920547 L22.6027682,34.6916249 L22.6019829,39.3670728 L20.7904056,39.3664287 L20.7932183,28.407566 L23.9470055,28.4071252 C24.4046884,28.4084291 24.8262487,28.4679424 25.2111603,28.586196 C25.5971336,28.7044405 25.9269261,28.8942263 26.2031457,29.1502676 C26.4788716,29.4105238 26.6946261,29.7339328 26.8509911,30.1262793 C27.0068345,30.5196829 27.084767,30.9890266 27.085329,31.5353583 C27.085347,31.9595849 27.0302281,32.3327075 26.9205311,32.6578793 C26.8102986,32.9825295 26.6730994,33.2595164 26.5067915,33.4867533 C26.3404789,33.7134638 26.1551955,33.8961262 25.9525389,34.0352531 C25.7488111,34.1733366 25.5484337,34.2698105 25.3513787,34.3215172 L27.33268,39.3682536 L25.3650086,39.3679072 Z M36.1863852,30.5318515 C35.78072,30.046395 35.2710059,29.8039531 34.6572289,29.802947 C34.4798895,29.8023758 34.3075923,29.8317622 34.1424377,29.8884562 C33.9751595,29.9451686 33.8235786,30.0359571 33.6892784,30.1597552 C33.5539118,30.2830362 33.4470072,30.4429145 33.36856,30.6388637 C33.291184,30.8358564 33.2512814,31.0677893 33.2520562,31.3367402 C33.2508382,31.8015053 33.3925585,32.158714 33.672462,32.411039 C33.9539675,32.6644029 34.3234914,32.9043732 34.7810383,33.1314763 C35.0508741,33.2654629 35.3278015,33.4209679 35.6086213,33.59644 C35.8889103,33.7719167 36.1445573,33.9828711 36.3734573,34.2314267 C36.6034098,34.4789205 36.7891652,34.7720616 36.9355245,35.11344 C37.0808082,35.4532487 37.1539098,35.8563159 37.1532181,36.3205501 C37.1536967,36.8574085 37.0681488,37.3323772 36.8955221,37.7465179 C36.7239248,38.1569654 36.4944341,38.5047534 36.208643,38.7898681 C35.9217715,39.0728869 35.5854501,39.2873835 35.2012578,39.4317652 C34.8159944,39.5751035 34.4104714,39.6486144 33.9835947,39.648623 C33.3698224,39.6481432 32.8017223,39.5283163 32.2814365,39.2912293 C31.7611507,39.0541422 31.3454411,38.7545691 31.0327245,38.3935764 L32.0475796,37.0321137 C32.2879807,37.3205713 32.5761563,37.5475607 32.9136944,37.7125417 C33.2517635,37.8775181 33.5986707,37.9608361 33.9528001,37.9598778 C34.3478274,37.960671 34.6758323,37.8267758 34.9362931,37.5592492 C35.1956782,37.290153 35.3266974,36.9142684 35.3261327,36.427939 C35.3272719,35.9542269 35.1715722,35.5771384 34.8585257,35.2993096 C34.5465226,35.0193665 34.1508224,34.7612008 33.6719468,34.5237555 C33.3701736,34.3805712 33.0863027,34.2203892 32.821396,34.0432004 C32.5559816,33.8686478 32.3221201,33.6596103 32.119299,33.4181977 C31.9159332,33.1752109 31.7546781,32.8908056 31.6344858,32.5665699 C31.5158722,32.2407415 31.4556373,31.8517741 31.4558769,31.3964915 C31.4567362,30.8306731 31.546951,30.3430319 31.729171,29.9330189 C31.9114234,29.52669 32.1516247,29.189336 32.4476513,28.9209755 C32.744735,28.6520794 33.080669,28.4539026 33.4543777,28.3248753 C33.8302146,28.1963559 34.2097976,28.1314908 34.5947238,28.1307924 C35.1569942,28.1311915 35.6590124,28.2231679 36.1012724,28.4025067 C36.5435556,28.584477 36.9154208,28.8491649 37.2174314,29.2002498 L36.1863852,30.5318515 Z M47.4425885,33.8772348 C47.4424601,33.3198463 47.3990944,32.7965173 47.3108894,32.3062091 C47.2216319,31.8169626 47.0920648,31.3928041 46.9206188,31.036379 C46.7486418,30.6799584 46.5353908,30.3996873 46.2797809,30.1929433 C46.0252327,29.9861901 45.7317844,29.8839879 45.3983509,29.8837145 C45.0553658,29.8840501 44.7557515,29.9861195 44.5000576,30.1920236 C44.2454302,30.3984447 44.0328755,30.6797679 43.8607917,31.0349543 C43.6887218,31.3917196 43.5613143,31.8159958 43.4780198,32.3056824 C43.3936681,32.7959044 43.3526113,33.3189111 43.3516732,33.8757825 C43.3512707,34.4331757 43.3935792,34.9570401 43.4769968,35.4463371 C43.560433,35.9377393 43.687895,36.3640213 43.8593828,36.7251831 C44.0313968,37.0858141 44.243623,37.3703047 44.4981712,37.5770579 C44.7537672,37.782223 45.0530694,37.8859536 45.3965854,37.8856134 C45.7406462,37.8868476 46.0391801,37.7826821 46.294874,37.5767781 C46.5489752,37.3708878 46.7630994,37.0869194 46.9340658,36.7254266 C47.1061033,36.3649773 47.2345494,35.9380604 47.3178439,35.4483738 C47.4011338,34.9581609 47.4427168,34.4346234 47.4425885,33.8772348 Z M49.3794676,33.8778476 C49.3791348,34.7447256 49.2873045,35.5313395 49.1055786,36.238728 C48.9238388,36.9445376 48.65946,37.5510583 48.3161445,38.0566791 C47.9733554,38.561769 47.5536559,38.9548884 47.0596589,39.2312777 C46.5635708,39.5113694 46.0099701,39.651427 45.3967287,39.6509426 C44.7712765,39.6505638 44.2152157,39.5111583 43.7258824,39.2316966 C43.2360321,38.9538184 42.8195071,38.5616173 42.4768477,38.0561413 C42.1341837,37.550139 41.8702745,36.9434515 41.6888457,36.2370994 C41.5068721,35.529173 41.4160633,34.7430865 41.4163961,33.8762085 C41.4156763,33.0103923 41.5053969,32.2253757 41.6818648,31.5238224 C41.858328,30.8217428 42.1195446,30.2178811 42.4628554,29.7117341 C42.8067018,29.2061087 43.2264383,28.8171996 43.7204677,28.5444944 C44.2144786,28.269684 44.7739469,28.1327337 45.3993991,28.1331125 C46.0126405,28.1335969 46.5670809,28.2698584 47.0611506,28.5445421 C47.5562775,28.8186903 47.9743673,29.2077199 48.3180932,29.713713 C48.6618144,30.2191798 48.924634,30.8227186 49.1060303,31.5253867 C49.2884792,32.226993 49.3787525,33.0125577 49.3794676,33.8778476 Z M59.0113479,39.3747331 L55.8743657,31.6342075 L55.8276465,31.6346116 L55.8564896,39.3741305 L54.1702188,39.3739813 L54.1730222,28.4140661 L56.3121884,28.4145079 L59.4172072,36.2032066 L59.4649883,36.2027932 L59.4500626,28.4157837 L61.0736824,28.4159486 L61.0719362,39.3753283 L59.0113479,39.3747331 Z M68.9268572,30.1675524 L68.8642016,30.1670418 L67.6611341,35.6002878 L70.0965662,35.6007982 L68.9268572,30.1675524 Z M70.8763155,39.3773544 L70.3302454,37.0556742 L67.4265217,37.0550043 L66.8634566,39.3768058 L64.9897546,39.3756465 L67.741254,28.4172159 L70.1299622,28.4176042 L72.8280552,39.3773544 L70.8763155,39.3773544 Z M76.7469447,39.3786738 L76.7492219,28.4192895 L78.6393725,28.4192539 L78.6368381,37.6606803 L81.6802026,37.6617211 L81.6809861,39.3791481 L76.7469447,39.3786738 Z M91.0040553,30.0012966 L91.0022132,39.3816697 L89.1598391,39.3807656 L89.1622167,30.0009142 L87.0862277,29.9999259 L87.0856009,28.4209238 L93.0815366,28.4227382 L93.0811016,30.0017494 L91.0040553,30.0012966 Z M101.292765,31.6444584 C101.293045,31.3144434 101.246031,31.0401028 101.15175,30.8245945 C101.059579,30.6074888 100.937014,30.435911 100.786742,30.3135221 C100.634854,30.1885155 100.466311,30.1015492 100.278966,30.05001 C100.092143,29.9974137 99.9039677,29.9721985 99.7176169,29.9732843 L98.6546654,29.9724797 L98.6541068,33.3468235 L99.7159919,33.347111 C100.174192,33.3468314 100.551501,33.2046146 100.847933,32.9220394 C101.143821,32.63789 101.293512,32.211842 101.292765,31.6444584 Z M101.417179,39.3842031 L99.6998446,34.7094079 L98.6538866,34.7089826 L98.6525611,39.3833825 L96.8409884,39.3832647 L96.8437918,28.4233494 L99.997593,28.4244875 C100.455793,28.4242079 100.878415,28.483712 101.262805,28.6030228 C101.647712,28.7207502 101.97803,28.9100051 102.254259,29.167099 C102.528919,29.4268381 102.74574,29.7507642 102.901569,30.142589 C103.05847,30.5354571 103.13535,31.0058626 103.13485,31.5522035 C103.134323,31.9748558 103.080811,32.3495435 102.97164,32.6741845 C102.862469,32.9988255 102.723678,33.2758261 102.557896,33.5025321 C102.391583,33.7292426 102.206836,33.9124268 102.002581,34.0510411 C101.800451,34.1896371 101.599007,34.2855939 101.401421,34.3373052 L103.383254,39.3840371 L101.417179,39.3842031 Z M110.458221,30.1761662 L110.395035,30.1756602 L109.192498,35.6089016 L111.627399,35.6094166 L110.458221,30.1761662 Z M112.407153,39.3864991 L111.861083,37.0648189 L108.957364,37.0646754 L108.39482,39.3854197 L106.522189,39.3853037 L109.27103,28.4263698 L111.660269,28.4267535 L114.358893,39.3864991 L112.407153,39.3864991 Z M118.278839,39.3872831 L118.280595,28.4289559 L120.153217,28.4280193 L120.152541,39.3884425 L118.278839,39.3872831 Z M130.285041,39.3902616 L127.147532,31.6502669 L127.100804,31.6496184 L127.130178,39.3891327 L125.444438,39.3889789 L125.446184,28.4295992 L127.58535,28.430041 L130.691422,36.2176779 L130.737088,36.2183355 L130.723746,28.4302596 L132.347375,28.4314771 L132.34562,39.3898043 L130.285041,39.3902616 Z M137.638056,39.3913887 L137.640333,28.4320043 L139.514031,28.4326374 L139.511227,39.3925527 L137.638056,39.3913887 Z M149.644788,39.3943626 L146.506753,31.6548988 L146.461087,31.6542412 L146.48993,39.39376 L144.803654,39.3930845 L144.805932,28.4337002 L146.945102,28.4346683 L150.050107,36.2217881 L150.096836,36.2224365 L150.084024,28.434356 L151.707123,28.4355781 L151.704315,39.394967 L149.644788,39.3943626 Z M162.376647,39.3815892 C161.91246,39.5461374 161.359412,39.6282933 160.713255,39.6280936 C160.058077,39.6284983 159.469119,39.4914828 158.949039,39.2175505 C158.428974,38.945197 157.989103,38.5547769 157.631052,38.0499604 C157.271921,37.5430478 156.995834,36.9401501 156.803293,36.2381048 C156.609164,35.5365996 156.514168,34.7573917 156.515116,33.8999824 C156.516267,33.0657302 156.608771,32.2954269 156.795336,31.594839 C156.984554,30.894228 157.254764,30.2866042 157.609191,29.7766766 C157.962538,29.2646529 158.390169,28.8677806 158.889414,28.5845035 C159.389191,28.3012219 159.949666,28.1579468 160.576175,28.1577901 C161.230296,28.1579209 161.798908,28.275638 162.277747,28.5088729 C162.757088,28.7389455 163.146512,29.0682208 163.449158,29.4914082 L162.370583,30.791841 C161.953825,30.1922655 161.392109,29.8929029 160.684893,29.8927051 C160.299963,29.8928772 159.963767,30.0010529 159.677895,30.216692 C159.390449,30.4344501 159.154087,30.7254533 158.966714,31.0928777 C158.779322,31.4581969 158.638651,31.8836406 158.545759,32.3686732 C158.450221,32.8547813 158.40374,33.3646765 158.404745,33.901004 C158.404342,34.4583971 158.450367,34.9822295 158.544938,35.4719563 C158.63739,35.9622278 158.778157,36.3920791 158.965609,36.7573135 C159.152549,37.1246576 159.38921,37.4105159 159.675612,37.6169935 C159.962541,37.8229403 160.303244,37.92526 160.698267,37.9255269 C160.948339,37.9254688 161.175338,37.8977146 161.378186,37.8406944 C161.580509,37.7842052 161.743913,37.7096308 161.869466,37.6174886 L161.87054,34.7842135 L160.526728,34.7842597 L160.526894,33.1747233 L163.572909,33.1752148 L163.570849,38.7312336 C163.237134,39.0004466 162.838701,39.2160068 162.376647,39.3815892 Z M175.610433,30.8257275 C175.609803,30.4525608 175.538103,30.1484327 175.393727,29.9117779 C175.248276,29.6735534 175.03804,29.5548413 174.759303,29.5556737 C174.481088,29.5554489 174.256046,29.684769 174.086276,29.9409843 C173.915468,30.1998402 173.830109,30.5153275 173.829128,30.8864027 C173.829817,31.2058826 173.882316,31.5001765 173.985033,31.7692982 C174.088272,32.0373626 174.243101,32.3155075 174.448988,32.6037374 C174.758313,32.3984221 175.027472,32.153979 175.261761,31.8687835 C175.493419,31.5862424 175.610866,31.236792 175.610433,30.8257275 Z M173.782574,34.5243124 C173.553414,34.6684056 173.339768,34.8860515 173.142139,35.174088 C172.944519,35.463177 172.845358,35.8393123 172.845202,36.3040682 C172.844698,36.8498828 172.967964,37.2819908 173.212308,37.5962047 C173.456666,37.9119976 173.776075,38.0681878 174.171102,38.068981 C174.505062,38.0687235 174.781178,37.9510673 175.000012,37.7196917 C175.217776,37.4872727 175.374338,37.2385404 175.468059,36.9682456 L173.782574,34.5243124 Z M177.186352,39.3997893 L176.38901,38.2687492 C176.181024,38.6468787 175.881241,38.9710633 175.491268,39.2428683 C175.101799,39.5115109 174.604441,39.6473976 173.999699,39.647366 C173.115153,39.6476496 172.407587,39.3663916 171.87647,38.8035963 C171.345888,38.2413228 171.080833,37.4441117 171.081303,36.4119631 C171.08157,35.6582478 171.260797,35.0287787 171.620048,34.5240727 C171.97876,34.0183187 172.424339,33.6097117 172.955743,33.3003659 C172.664879,32.888656 172.449547,32.4926089 172.315624,32.1163847 C172.180643,31.740696 172.112785,31.3302148 172.113122,30.8859844 C172.113109,30.4622842 172.18036,30.0801089 172.31541,29.7399803 C172.450456,29.3993254 172.634277,29.1108821 172.868979,28.8725269 C173.101049,28.6368261 173.382421,28.452806 173.708884,28.3247138 C174.035864,28.1950381 174.386783,28.1309473 174.758968,28.1303591 C175.123193,28.1303662 175.454501,28.1906603 175.754994,28.3091179 C176.056554,28.4280926 176.317689,28.598998 176.534147,28.8213445 C176.751652,29.0421028 176.92341,29.3132589 177.048343,29.6332429 C177.172741,29.9527053 177.232735,30.3143053 177.233084,30.7158965 C177.232999,31.0680159 177.176886,31.3885136 177.063148,31.6768769 C176.947818,31.965254 176.797216,32.2276194 176.609774,32.4666185 C176.422309,32.7029861 176.203349,32.9201517 175.952867,33.1149576 C175.702408,33.3123949 175.443823,33.4914808 175.172372,33.656467 L176.436038,35.4687621 L177.28097,33.4413755 L179.122804,33.4412316 L177.482444,36.7866021 L179.340938,39.4027294 L177.186352,39.3997893 Z M191.91573,39.2797317 C191.463605,39.5478637 190.892433,39.6822836 190.205918,39.6813804 C189.582064,39.6815141 189.016391,39.5358758 188.51318,39.2481128 C188.00731,38.9598464 187.580098,38.5598427 187.232074,38.0480971 C186.883528,37.5374086 186.612722,36.9313072 186.420717,36.2297836 C186.227109,35.5272212 186.13222,34.7601181 186.131751,33.9227219 C186.132892,33.087417 186.228573,32.3160336 186.42251,31.6085395 C186.614332,30.9021163 186.889306,30.2928723 187.241079,29.7829676 C187.595497,29.2719874 188.025773,28.8740395 188.530332,28.5912428 C189.033825,28.307929 189.594299,28.1646539 190.208598,28.1646029 C190.844137,28.1648944 191.400004,28.2821955 191.878837,28.5149041 C192.358184,28.745503 192.747645,29.0789886 193.050383,29.512702 L191.97287,30.8131255 C191.545406,30.2036423 190.994266,29.8994512 190.316786,29.8995225 C189.942464,29.8985502 189.614744,30.0045471 189.333599,30.2143557 C189.052487,30.4278483 188.818212,30.7146227 188.630783,31.0757316 C188.444411,31.436305 188.302683,31.8622841 188.209842,32.3531059 C188.115403,32.8434153 188.066909,33.3659599 188.068099,33.9233393 C188.067599,34.4696802 188.11571,34.9892838 188.208153,35.4785027 C188.301667,35.968765 188.442407,36.3954585 188.629821,36.7564825 C188.816701,37.1169849 189.053371,37.4038958 189.33982,37.6156363 C189.62679,37.8263197 189.961686,37.932374 190.347143,37.931671 C190.711373,37.9322043 191.025941,37.8400059 191.291372,37.6545447 C191.556267,37.4685619 191.778324,37.2413691 191.95541,36.9719321 L193.032588,38.2268719 C192.739614,38.6610019 192.368386,39.0115951 191.91573,39.2797317 Z M202.947623,33.9114605 C202.94696,33.3535503 202.90412,32.8296904 202.815389,32.3399131 C202.726127,31.8501403 202.597091,31.4259773 202.426175,31.0695475 C202.252606,30.7131407 202.03989,30.4333913 201.784807,30.2261164 C201.530258,30.0193632 201.23681,29.9171611 200.903912,29.9174093 C200.559325,29.9167061 200.259715,30.0193019 200.005619,30.2257184 C199.749934,30.432675 199.536849,30.7140028 199.364765,31.0691892 C199.19269,31.4254282 199.064747,31.8491827 198.983041,32.3383292 C198.899225,32.829073 198.857111,33.3526151 198.856708,33.9100082 C198.856306,34.4674014 198.898614,34.9912658 198.981501,35.4805674 C199.06334,35.9714571 199.191863,36.3977299 199.362811,36.7578437 C199.535365,37.1195227 199.74918,37.4034733 200.004259,37.6102219 C200.257731,37.8154053 200.557573,37.9201839 200.901616,37.9193128 C201.245141,37.9200253 201.543675,37.8158598 201.798847,37.611013 C202.054532,37.4040564 202.267599,37.1206234 202.439622,36.7585952 C202.61166,36.3981458 202.738518,35.971769 202.822339,35.4815515 C202.905107,34.9923958 202.946154,34.4683366 202.947623,33.9114605 Z M204.883967,33.9115517 C204.88417,34.7789514 204.791264,35.5639955 204.610083,36.2729583 C204.427276,36.9782508 204.164486,37.5842314 203.821175,38.0903785 C203.477329,38.5960039 203.05762,38.9880707 202.564689,39.2649771 C202.069132,39.5450642 201.51446,39.6840784 200.900693,39.6841249 C200.276307,39.6842632 199.720246,39.5448577 199.231439,39.2648651 C198.740527,38.9869961 198.324537,38.5953167 197.981873,38.0893144 C197.638678,37.5833167 197.374774,36.9771555 197.193345,36.2708034 C197.010836,35.5623553 196.920032,34.7767951 196.919834,33.9099217 C196.921233,33.0435608 197.00883,32.2585626 197.187421,31.556991 C197.363358,30.8554422 197.624575,30.2515806 197.967886,29.7454335 C198.310666,29.239291 198.731473,28.8514253 199.225493,28.5776675 C199.718978,28.303388 200.278446,28.1664377 200.902837,28.1668257 C201.516609,28.1673055 202.07158,28.3035624 202.56565,28.5782461 C203.059706,28.8513509 203.478862,29.2408976 203.822588,29.7468907 C204.165252,30.252893 204.428598,30.8559009 204.611056,31.5585598 C204.792443,32.2601753 204.883238,33.0446828 204.883967,33.9115517 Z M212.237729,30.197794 L212.174547,30.1978143 L210.972537,35.6305248 L213.406381,35.6315753 L212.237729,30.197794 Z M214.187187,39.407596 L213.641117,37.0859158 L210.737403,37.0862986 L210.17539,39.4070383 L208.300109,39.4074716 L211.051599,28.4479884 L213.439772,28.447855 L216.138936,39.4086065 L214.187187,39.407596 Z M225.35872,39.2867378 C224.906064,39.5548744 224.335955,39.6892851 223.649444,39.6889082 C223.025059,39.6890465 222.458324,39.5434173 221.955118,39.2561806 C221.44977,38.9668571 221.023083,38.5663225 220.675064,38.0551032 C220.325461,37.5449502 220.055712,36.9383133 219.862645,36.2367989 C219.671166,35.5347444 219.575211,34.7671242 219.574746,33.9302543 C219.575883,33.0944231 219.671564,32.3230397 219.864439,31.6155548 C220.057332,30.910175 220.331239,30.3004138 220.685662,29.7899599 C221.038487,29.2789935 221.468758,28.8805193 221.973318,28.5977226 C222.476815,28.3149351 223.037816,28.1711291 223.651593,28.1721353 C224.287132,28.1724268 224.844056,28.2891923 225.322354,28.5213793 C225.800126,28.7540971 226.190104,29.0859993 226.49232,29.5207698 L225.414799,30.8201408 C224.988392,30.2101221 224.436199,29.9069928 223.760307,29.906524 C223.385989,29.9060779 223.057739,30.0120795 222.776604,30.2229406 C222.495473,30.4343281 222.261733,30.7216242 222.073778,31.083264 C221.886335,31.4427939 221.746204,31.8692856 221.65177,32.3601212 C221.557331,32.8504305 221.511492,33.3729522 221.511094,33.9308717 C221.510599,34.4777389 221.557644,34.9968253 221.651139,35.4849825 C221.744662,35.9762974 221.885397,36.4024646 222.073343,36.763484 C222.259691,37.1239909 222.496893,37.4108972 222.78281,37.6226424 C223.06979,37.8343784 223.404676,37.9393801 223.789607,37.939208 C224.153297,37.9386933 224.468927,37.8464856 224.733831,37.6615554 C224.999784,37.475037 225.220784,37.2483797 225.398405,36.9794645 L226.474521,38.2344135 C226.184197,38.6679942 225.811908,39.0185966 225.35872,39.2867378 Z M236.014226,39.4124582 L236.014982,34.5527929 L232.704561,34.5524835 L232.703804,39.4121488 L230.846574,39.4124259 L230.848842,28.4519889 L232.706081,28.4527644 L232.705903,32.8955667 L236.014736,32.8964162 L236.017038,28.4535955 L237.874273,28.4538447 L237.87147,39.41376 L236.014226,39.4124582 Z M243.163897,39.4142918 L243.166179,28.4554337 L245.039867,28.4550142 L245.038125,39.4149203 L243.163897,39.4142918 Z M255.170629,39.4172657 L252.033651,31.6772664 L251.986923,31.676618 L252.016823,39.4156014 L250.330562,39.4165048 L250.332829,28.4560678 L252.472,28.4570359 L255.577005,36.2441557 L255.623734,36.2448041 L255.60987,28.4577854 L257.234025,28.458472 L257.231739,39.4168038 L255.170629,39.4172657 Z M267.904607,39.4039477 C267.439368,39.5695577 266.885248,39.6506701 266.240153,39.6504613 C265.584975,39.650866 264.996547,39.5138459 264.475937,39.2399181 C263.954815,38.9681001 263.516006,38.5776708 263.156884,38.0718109 C262.798828,37.5664681 262.522741,36.9635703 262.331253,36.2604633 C262.13819,35.5594751 262.042128,34.7797501 262.043089,33.9239198 C262.042638,33.0886287 262.135683,32.3193735 262.324362,31.6177145 C262.510917,30.9160739 262.781662,30.3089718 263.136089,29.7990442 C263.490507,29.288064 263.917062,28.8896219 264.416317,28.6073974 C264.916103,28.3251684 265.477635,28.1813578 266.103082,28.1812103 C266.757203,28.1813411 267.325806,28.2980056 267.80464,28.5307143 C268.283995,28.7623657 268.673406,29.0900621 268.974998,29.5143113 L267.897476,30.8136823 C267.481254,30.2146286 266.919007,29.9152706 266.211801,29.9161254 C265.825803,29.9157803 265.489603,30.0234297 265.204267,30.2395905 C264.917873,30.4562869 264.68099,30.7483472 264.494678,31.1157624 C264.306225,31.4810908 264.165554,31.9065345 264.072126,32.3910454 C263.978176,32.8766134 263.930642,33.3875704 263.930064,33.9249643 C263.931245,34.4812911 263.978327,35.0045879 264.070779,35.4948594 C264.165355,35.9851126 264.30505,36.4139204 264.492507,36.7796811 C264.680508,37.1470161 264.916113,37.4334099 265.203036,37.6388303 C265.488382,37.8458434 265.82908,37.9476368 266.224103,37.9479037 C266.475237,37.9478364 266.702236,37.9200822 266.904032,37.8641238 C267.107411,37.8070991 267.271877,37.7325156 267.396364,37.6398562 L267.397447,34.8076337 L266.053631,34.8071536 L266.053797,33.1976172 L269.098754,33.1986442 L269.097747,38.7536013 C268.764031,39.0228142 268.36667,39.2394179 267.904607,39.4039477 Z" transform="translate(99.75 7.5)"/>
  </g>
</svg>
