<svg xmlns="http://www.w3.org/2000/svg" width="400" height="97" viewBox="0 0 400 97">
  <g fill="#272838" fill-rule="evenodd">
    <path d="M77.1250125 74.4112711C75.9775343 74.9780828 74.7739492 75.110946 73.532718 74.7962887 71.0336047 74.1601881 69.4289451 71.8315098 69.7069462 69.3453244 70.0055801 66.6773448 72.2252445 65.000125 74.3355908 64.8561898 73.0816903 66.6066273 72.8293899 68.4727843 73.867188 70.3821576 74.906434 72.2926024 76.6204117 73.1212119 78.8107557 73.0604948 78.3474206 73.6290923 77.7881607 74.083756 77.1250125 74.4112711zM74.2429238 62.2114256C69.933546 62.2114256 66.4407961 65.6576552 66.4407961 69.9089216 66.4407961 74.1609024 69.933546 77.6082034 74.2429238 77.6082034 78.5519396 77.6082034 82.0446894 74.1609024 82.0446894 69.9089216 82.0446894 65.6576552 78.5519396 62.2114256 74.2429238 62.2114256L74.2429238 62.2114256zM7.81298703 68.2795612C8.2126135 68.281347 8.54816942 67.9488317 8.55070329 67.5491705 8.55323715 67.1480807 8.22347292 66.8194942 7.8173308 66.8180655 7.40250115 66.8162798 7.06984107 67.1402232 7.06875513 67.5455989 7.06730721 67.9481174 7.40177719 68.2788469 7.81298703 68.2795612"/>
    <path d="M7.80502346,72.8108405 C7.39888135,72.8115548 7.06368741,72.4765394 7.06404939,72.0704494 C7.06404939,71.6747169 7.40177719,71.3400587 7.80393752,71.3382729 C8.21297548,71.3368443 8.55468507,71.6697167 8.55685695,72.0697351 C8.5579429,72.4779681 8.22021509,72.8101262 7.80502346,72.8108405 Z M8.43450755,70.1203599 C8.20247805,70.0632144 7.96176102,70.0453565 7.72973152,69.9907111 C7.17047165,69.860348 6.66768074,69.6131938 6.3176456,69.1513869 C5.64472386,68.2663463 5.60418204,67.3098738 6.07367075,66.3273287 C6.19602016,66.0716027 6.39510943,65.8512355 6.55039906,65.625868 C5.68345577,65.8655218 4.92872644,66.3205427 4.33652635,67.0252179 C3.77292271,67.6952487 3.4576377,68.4706414 3.35230138,69.3331809 C3.2701318,70.0089262 3.31755125,70.6735996 3.54704688,71.3150576 C4.10232497,72.8669145 5.19261022,73.85946 6.80668125,74.2780507 C7.36775102,74.4227002 7.93171664,74.4555588 8.50147394,74.2730504 C9.64135052,73.9062479 10.2860378,72.888344 10.0312035,71.7715071 C9.83645801,70.9186108 9.31737798,70.3375127 8.43450755,70.1203599 L8.43450755,70.1203599 Z"/>
    <path d="M12.5802702 70.5710949C12.3464308 72.1100941 11.54392 73.2783619 10.1933708 74.07697 9.5989988 74.4302005 8.94924381 74.6416388 8.25677512 74.695927 6.6036102 74.8234328 5.2374958 74.2441205 4.15119233 73.0237074 3.51627854 72.3093889 3.15538399 71.4650645 3.02905279 70.5250213 3.00154228 70.3196548 2.99611257 70.1121453 2.98670108 69.9853537 3.00190426 68.8367296 3.29076469 67.8559703 3.94631137 66.9952165 4.61235548 66.1219622 5.49884572 65.5733656 6.5627064 65.2901383 6.96631465 65.1829905 7.37861044 65.1183447 7.79344009 65.1079871 8.29043931 65.0937007 8.78019892 65.1794189 9.25113555 65.3379976 10.7486489 65.8426637 11.784999 66.8262802 12.3402771 68.2884902 12.620088 69.0256668 12.6986378 69.7914162 12.5802702 70.5710949zM7.80972921 62.2114256C3.50107536 62.2114256.00796357092 65.6576552.00796357092 69.9089216.00796357092 74.1609024 3.50107536 77.6082034 7.80972921 77.6082034 12.118745 77.6082034 15.6122188 74.1609024 15.6122188 69.9089216 15.6122188 65.6576552 12.118745 62.2114256 7.80972921 62.2114256L7.80972921 62.2114256zM29.9046567 94.8618522C28.6800767 94.8618522 27.4551347 94.8618522 26.2305547 94.8618522 23.9185853 93.706442 23.0968895 91.8099264 23.3173357 89.3337414 23.5109952 87.1629275 25.2745642 86.0418047 27.3121524 86.8618423 27.4276242 86.908273 27.5445439 86.9539894 27.7476149 87.033993 27.821459 86.2457426 27.4746817 85.7089322 26.9570495 85.248554 26.8075516 85.1156907 26.5715403 85.0549737 26.4672899 84.8996094 26.336253 84.7056719 26.299331 84.4499459 26.2222291 84.2206497 26.466204 84.1760048 26.762304 84.021712 26.9451042 84.1060016 27.8171152 84.5095915 28.3760131 85.2110523 28.6608917 86.1178796 28.7274962 86.331818 28.7760015 86.5507566 28.8165434 86.706478 29.4261185 86.6700478 30.010717 86.5336129 30.5547737 86.6261172 31.8781744 86.8504132 32.647021 87.7786701 32.8091882 89.1240889 33.1154237 91.66992 32.3433193 93.6732262 29.9046567 94.8618522zM32.0971726 82.8234427C31.8126559 84.4506602 31.2827165 84.8860373 29.3779751 85.0949755 29.2856701 83.4545431 30.1497175 82.7162949 32.0971726 82.8234427zM28.0777412 81.1387226C23.7690873 81.1387226 20.2756135 84.5853093 20.2756135 88.8365757 20.2756135 93.0885565 23.7690873 96.5355004 28.0777412 96.5355004 32.387481 96.5355004 35.8802308 93.0885565 35.8802308 88.8365757 35.8802308 84.5853093 32.387481 81.1387226 28.0777412 81.1387226L28.0777412 81.1387226zM59.2587411 86.5557568C59.2218191 86.0735918 59.1914127 85.6660731 59.1599204 85.2524827 58.9973912 85.3514158 58.8203827 85.4589208 58.6433743 85.5664257 57.3941796 86.3289607 56.143537 87.0914957 54.8954282 87.8558165 54.3314626 88.2015466 54.2080273 88.7919308 54.6094636 89.3298127 56.1942142 88.384055 57.7662955 87.4461548 59.2587411 86.5557568M49.2069047 90.4577215C50.2385491 90.6305866 51.2687456 90.8159523 52.2985801 90.9963177 52.895486 91.1006082 53.4923918 91.2027557 54.1425088 91.3159752 53.9394377 90.8516682 53.9546409 90.4359348 54.1906522 90.0152012 54.1081206 89.9909144 54.0632351 89.9726993 54.0179875 89.9644846 52.4064503 89.6809002 50.7956371 89.3926727 49.183014 89.1223031 49.0664563 89.1033737 48.9013932 89.17802 48.8069163 89.2612381 48.5795925 89.4644617 48.5535299 89.7394743 48.6371474 90.0173442 48.719679 90.290571 48.9263698 90.4102194 49.2069047 90.4577215M52.6811935 91.7209938C51.5662936 91.5234847 50.4521176 91.3227612 49.3357698 91.1348955 49.1949594 91.111323 49.0244665 91.1166803 48.8992213 91.1756116 48.663934 91.2849024 48.5564258 91.615989 48.6096369 91.9181457 48.6566944 92.1867294 48.8612133 92.383167 49.1439201 92.4331693 50.5208939 92.6753233 51.8978677 92.9181916 53.2752035 93.1589169 53.5484988 93.2064191 53.822518 93.2464209 54.137803 93.296066 53.935094 92.8256873 53.9745498 92.4185258 54.2178007 91.9920777 53.6719341 91.8949303 53.1763828 91.8084978 52.6811935 91.7209938M49.2293475 88.471559C50.5035189 88.6940692 51.7762423 88.920151 53.0507756 89.1423041 53.3990008 89.2037354 53.748312 89.2555235 54.1352692 89.3176692 53.9430575 88.8562195 53.9550029 88.4472722 54.1957199 88.0211812 54.0733705 87.9940371 53.9919249 87.9718932 53.9090314 87.9576068 52.3727861 87.6886659 50.8361789 87.4222251 49.3002957 87.1532842 48.9336094 87.0897099 48.6697257 87.269361 48.6089129 87.6325919 48.533983 88.0804696 48.7652885 88.3911982 49.2293475 88.471559"/>
    <path d="M59.892207,90.7688072 C59.6467842,90.9306004 59.3923119,91.0802501 59.1400115,91.2331143 C57.7529023,92.0799388 56.3625352,92.9228346 54.9783217,93.7753738 C54.6988728,93.9475245 54.4266635,94.0228851 54.0900216,93.9618109 C52.357583,93.6453678 50.6200766,93.3528544 48.886552,93.0396257 C48.198789,92.91462 47.7636885,92.0392227 48.014179,91.3006174 C48.0793355,91.107037 48.1969791,90.9323862 48.3026774,90.725591 C47.8078501,90.0066294 47.8082121,89.5094638 48.3146228,88.7472859 C47.9602439,88.2894078 47.7951808,87.774027 48.0583406,87.226859 C48.1785181,86.9761332 48.3779694,86.713264 48.6132567,86.5750434 C50.2121246,85.6378576 51.8323493,84.7363876 53.4380947,83.8088451 C53.7345568,83.6374086 54.027761,83.6927683 54.323861,83.73027 C56.0827242,83.9534946 57.8394156,84.1849338 59.5971929,84.4160158 C59.6627114,84.4238733 59.7289538,84.4363739 59.7941103,84.4506602 C60.0236059,84.5028055 60.040257,84.5792376 59.9302149,84.7799611 C59.7868707,85.0410445 59.6279612,85.3078424 59.5638907,85.591784 C59.5161093,85.8032223 59.6015366,86.047162 59.6471462,86.2728867 C59.6590915,86.3339609 59.7329356,86.4114645 59.7933863,86.4278938 C60.096364,86.5125405 60.0261398,86.6450466 59.8824335,86.8329124 C59.5685964,87.2436455 59.4114969,87.6958091 59.6236175,88.2040467 C59.6609015,88.2929794 59.7571883,88.3758403 59.8473214,88.4226282 C60.0326554,88.5179897 60.0493065,88.6126369 59.9204415,88.7733586 C59.6402686,89.1230175 59.4578304,89.5094638 59.557737,89.9734136 C59.6008127,90.1744943 59.6399066,90.3634315 59.8893111,90.4487926 C60.0847806,90.5166528 60.041343,90.6709456 59.892207,90.7688072 Z M53.9749118,81.1387226 C49.665896,81.1387226 46.1727842,84.5853093 46.1727842,88.8365757 C46.1727842,93.0885565 49.665896,96.5355004 53.9749118,96.5355004 C58.2839276,96.5355004 61.7770394,93.0885565 61.7770394,88.8365757 C61.7770394,84.5853093 58.2839276,81.1387226 53.9749118,81.1387226 L53.9749118,81.1387226 Z"/>
    <path d="M54.7419485 89.95627C54.3169834 90.2244966 54.213457 90.8920272 54.6195991 91.3131179 56.1884225 90.3773607 57.7608658 89.4380319 59.261637 88.543348 59.223267 88.0758265 59.1906888 87.6715223 59.1544907 87.2400739 57.7004151 88.1319006 56.2101414 89.0276559 54.7419485 89.95627M54.7643913 91.9324321C54.3025042 92.2270884 54.2572566 92.8396165 54.6051199 93.3096381 56.1916804 92.3635233 57.7641236 91.4256231 59.2572932 90.5352251 59.2218191 90.0559174 59.1917747 89.6469701 59.1606444 89.2258793 57.7054828 90.1180631 56.2231727 91.0077468 54.7643913 91.9324321M16.5410608 19.9373433C16.128403 19.1851659 15.1753083 18.9055102 14.4129774 19.3133861L12.6490465 20.2584294C11.8863536 20.6663053 11.6040088 21.6070627 12.0170285 22.3588829L18.2152206 33.6326145C18.6289643 34.3844347 19.581335 34.6644475 20.3436659 34.2558573L22.1075968 33.3122426C22.8699278 32.9032953 23.1526345 31.9632522 22.7399768 31.2117891L16.5410608 19.9373433M66.3043295 6.05849224L64.2985956 6.11242329C63.4309283 6.13635296 62.7478711 6.84817133 62.7703139 7.70356772L63.1236069 20.5241559C63.1467736 21.3795523 63.8682008 22.0542261 64.735506 22.0317251L66.74124 21.9770797C67.6085452 21.9542215 68.2916024 21.242046 68.2684357 20.3877211L67.9165906 7.56641857C67.8930619 6.71102218 67.1712728 6.03634837 66.3043295 6.05849224M30.5218335 28.9088263L26.9755106 22.4585304C28.0151185 21.8706463 29.3910064 21.1531133 31.1006403 20.3877211L31.2132162 19.8544823C30.9062568 19.1551645 30.5992973 18.4369173 30.3068171 17.7147413 28.3752891 18.5622802 26.8198589 19.3662456 25.6426984 20.0312762L22.7421486 14.7563913C22.2230686 13.8124194 21.0263611 13.4609747 20.0692847 13.9738554L17.85505 15.1592669C16.8990595 15.6714333 16.5428707 16.8525589 17.0626747 17.7965308L24.8419975 31.9486086C25.3614395 32.8932948 26.558147 33.2418822 27.5155855 32.7300731L29.7290962 31.5443044C30.6861726 31.0332095 31.0416375 29.852441 30.5218335 28.9088263M61.6767708 22.1999471L61.2344307 6.1070659C61.2047483 5.03237374 60.2987111 4.18626349 59.2102357 4.21519339L56.6922994 4.28269649C55.604548 4.3123407 54.7462923 5.20559597 54.7756127 6.27921666L54.9399518 12.2784205C53.4094983 12.2848493 51.372272 12.3741391 48.8992213 12.6691527L49.165277 13.2748948C49.4280748 13.2595369 49.6901487 13.2838237 49.9493267 13.3463266 50.8864942 13.5731227 51.6252964 14.2717262 51.892438 15.1574811 53.1068826 15.0717629 54.1548161 15.0410472 55.0156057 15.0378328L55.2172289 22.3735265C55.2469113 23.4478615 56.1525865 24.2943289 57.2414238 24.2650418L59.7589982 24.1982531C60.8474735 24.1693232 61.7060913 23.2739249 61.6767708 22.1999471"/>
    <path d="M19.2617062 12.5030736C20.0656649 12.0737682 20.9963167 11.954477 21.8835309 12.1698441 22.6458618 12.3548525 23.3245753 12.7784434 23.8219365 13.3641846 29.1285705 6.54280018 38.2084893 3.06764074 47.2000848 5.24774076 49.3267203 5.76347871 51.3082015 6.56208678 53.1159321 7.59213403L53.08082 6.32457588C53.0543954 5.35917445 53.4105842 4.44091803 54.0838679 3.7383858 54.2011496 3.61695166 54.3253089 3.50480365 54.4556219 3.40158463 52.5306096 2.39332409 50.4521176 1.60150205 48.2415027 1.06504886 36.7149578-1.7290079 25.0638915 3.26729276 19.0115776 12.6366512L19.2617062 12.5030736M37.1171181 20.046634C37.4971976 20.887744 38.2841432 21.3009773 39.1713574 21.1902579 40.0118761 21.0845388 40.6913135 20.4730821 40.9512155 19.6491158 40.8802674 19.2601694 40.8784575 18.8433645 40.7271496 18.4869196 39.8511568 16.44004 38.9519973 14.403518 38.0369106 12.3730677 37.564888 11.328734 36.4101702 10.9105006 35.3828696 11.3676644 34.4131238 11.7998271 33.9704217 12.9234501 34.4113139 13.9392109 35.299614 15.9796617 36.2009455 18.016898 37.1171181 20.046634"/>
    <path d="M40.4473387 16.4314681C40.4875185 16.520758 40.5450734 16.6029046 40.6381024 16.7629119 41.1528387 15.0992642 42.5768699 14.9242561 43.9770105 14.6385287 43.6161159 13.8142052 43.2765782 13.0366695 42.9374025 12.2605625 42.5667345 11.411595 42.204754 10.5579844 41.8264844 9.71187414 41.3374487 8.61896686 40.2225488 8.15108825 39.1811309 8.5914656 38.1480386 9.02719987 37.714024 10.1636806 38.1849606 11.256945 38.9310024 12.9841671 39.6911614 14.7071033 40.4473387 16.4314681M32.5174319 20.8920299C32.7632167 21.4388407 33.2171402 21.778142 33.81477 21.9206486 34.5687754 22.0913707 35.2319237 21.9181484 35.7484699 21.3470508 36.2722556 20.7691672 36.432251 20.0719923 36.1408567 19.3498163 35.6442195 18.1179741 35.1113842 16.8986324 34.557192 15.691077 34.1155758 14.7253184 32.9753373 14.3245858 31.9911123 14.7392477 31.0249864 15.148195 30.5326929 16.2100294 30.9254417 17.1886457 31.4242509 18.4365601 31.9672216 19.6662594 32.5174319 20.8920299M44.4218845 14.2052946C44.4725618 14.3170854 44.6962658 14.4460199 44.8088417 14.4228046 46.0185805 14.1724359 47.2218037 13.8920659 48.4720843 13.6099101 47.958434 12.445571 47.456367 11.3005185 46.9503183 10.1568946 46.7870651 9.78687758 46.6353953 9.4125747 46.4486133 9.05470114 45.9552339 8.11215789 44.8540892 7.72464011 43.9038904 8.14215927 42.9051863 8.5818223 42.4375075 9.63044184 42.8505272 10.6362023 43.3435446 11.8384003 43.8818096 13.0223832 44.4218845 14.2052946M34.3682382 52.5577684C34.9687639 52.5827696 35.5870266 52.6620589 36.2480029 52.8017082 36.5165925 52.8588537 36.6888952 52.850639 36.8912423 52.754206 37.2995563 52.5602686 37.6666045 52.3281151 37.9989026 52.0534596 37.9279544 51.872737 37.842889 51.6748708 37.7578236 51.4930767L35.8813167 48.5004394C28.990656 46.6621408 23.6746104 41.8354908 21.0212934 35.7923564 20.3367882 36.1213001 19.5592541 36.2030895 18.8168321 36.0230813 17.9252742 35.8066428 17.1625813 35.2269733 16.7249469 34.4301511L15.2303294 31.7128835C17.0344402 41.4068997 24.2407479 49.7029946 34.3682382 52.5577684M43.4173887 49.9919364L43.4557586 49.9876505 43.8072417 51.5348644 43.8155672 51.5684373C43.8738461 51.7663036 43.9929376 52.0245297 44.1337481 52.1738223 44.1931129 52.2184672 44.2553735 52.2641835 44.320168 52.3084713 44.4055954 52.3609737 44.487765 52.4152619 44.5713825 52.4731217 44.7411513 52.5774122 44.914178 52.6720594 45.0875667 52.7549203 45.2888278 52.850639 45.4625785 52.8584965 45.7297201 52.8017082 46.5394704 52.6299146 47.2873221 52.545625 48.013455 52.545625 48.3584224 52.545625 48.6972362 52.5666974 49.0306202 52.6063421 58.1145208 50.0976556 65.6151186 42.9637569 68.021927 33.2983134 68.8790968 29.8599414 69.0133915 26.4087116 68.5207361 23.1032028 68.0117915 23.4410755 67.4156096 23.6321556 66.7872115 23.6496565L64.7818395 23.702516C64.5838362 23.7078734 64.3861949 23.6946585 64.1914493 23.6653715 64.6153285 26.454428 64.5067344 29.3674188 63.7838593 32.2707663 61.3680015 41.9712113 52.8321394 48.6315169 43.225901 49.2361875L43.4173887 49.9919364"/>
    <path d="M68.9478731,62.3521464 C69.0075998,62.5678706 69.0836158,62.7678797 69.1751968,62.9557455 C69.3319344,62.8435975 69.4926537,62.737164 69.6577168,62.6357308 C69.6153651,62.4800094 69.580615,62.3214307 69.5596201,62.1542802 C69.3818877,60.7106425 68.5460747,59.8456028 67.1289211,59.5088016 C66.5341871,59.3677237 65.9332995,59.2487897 65.3414614,59.0937826 C65.2060807,59.0584238 65.0478952,58.9384183 64.9975799,58.8176985 C64.9682595,58.7491239 64.0271102,57.7419349 63.6477546,57.7094334 C61.8791179,57.5587122 60.2284869,57.9537303 58.5460015,58.3726781 C56.9094877,58.7798396 55.2856432,58.5862593 53.785234,57.7640787 C53.5094049,57.6130004 53.2621722,57.3822755 53.0576532,57.141193 C52.7792902,56.8140351 51.336798,55.1393155 50.9690258,54.9539498 C49.4179393,54.1767713 47.8129178,54.1596276 46.176766,54.5071436 C45.5422142,54.6414355 44.9644933,54.5971477 44.3936501,54.3249924 C44.1359199,54.2024868 43.8915831,54.0667662 43.6577437,53.9199738 C43.5896914,53.8706858 43.5151234,53.8210407 43.43042,53.7721099 C43.2972111,53.6806771 43.1679841,53.5871014 43.0431008,53.4885254 C42.4914425,52.9860024 42.2521734,52.2702553 42.1779674,52.0009572 C42.1689179,51.9652413 42.1598684,51.9302397 42.1508189,51.8955952 C42.1504569,51.8948809 42.1504569,51.8923808 42.1504569,51.8923808 C41.4015193,48.9308163 40.6500478,45.9592514 39.8913366,42.9580423 C42.6203076,43.6191441 45.2826742,44.2652451 48.0217806,44.928847 C47.9917362,44.7159801 47.9808768,44.5752594 47.9526423,44.4370387 C46.9054327,39.4264517 45.8632909,34.4151504 44.7972583,29.4088493 C44.7016955,28.9627574 44.802688,28.7209605 45.155981,28.4388047 C47.1573711,26.8465888 49.1515217,25.2425867 50.8988016,23.3696436 C51.7096379,22.500318 52.1403947,21.4834856 51.9775034,20.3034315 C51.7570573,18.7105013 51.5094627,17.1172139 51.1952636,15.5392844 C50.9943644,14.5274522 49.9565663,13.8588501 48.9202162,14.0706455 C46.7740338,14.5106657 44.636539,14.9942594 42.5106275,15.5164262 C41.4634179,15.7746523 40.8784575,16.872917 41.1209844,17.9115361 C41.368941,18.9751563 42.3745228,19.6687595 43.4731337,19.463393 C44.6010649,19.2512404 45.7159648,18.972299 46.8359325,18.7237162 C47.0686859,18.6719281 47.3018014,18.6215686 47.5743727,18.5615659 C47.6210682,18.826578 47.6594381,19.0544456 47.7046857,19.3130289 C44.6242316,19.7805504 41.6273951,20.349505 39.5825673,22.9117655 C38.6587931,22.2331629 37.7085942,21.5356309 36.7562236,20.8352416 C35.1769027,23.117132 33.4759563,23.0807018 31.8101221,20.7705958 C31.5947437,21.7970715 31.5628894,22.7742591 31.7348301,23.7632331 C32.0812455,25.7461812 32.9380533,27.5416207 33.7916033,29.3413462 C34.7921174,31.4507286 35.7719986,33.5679686 36.7598434,35.6841372 C36.8145024,35.8019997 36.8568541,35.925934 36.9296122,36.1102281 C34.2922223,35.4709131 31.7152832,34.8462416 29.138706,34.2212129 C29.1115575,34.2501428 29.0851329,34.2765726 29.0572604,34.3037167 C32.4768901,39.756824 35.8957959,45.2088599 39.3143397,50.6601814 C39.3143397,50.6601814 40.1320537,52.3509732 39.8927846,52.659916 C39.2806755,53.3449474 38.5418734,53.9053303 37.6593649,54.3249924 C37.0885217,54.5971477 36.5108008,54.6414355 35.876249,54.5071436 C34.2404591,54.1596276 32.6350756,54.1767713 31.0839892,54.9539498 C30.715855,55.1393155 29.2737247,56.8140351 28.9953617,57.141193 C28.7908427,57.3822755 28.5432481,57.6130004 28.2674189,57.7640787 C26.7670098,58.5862593 25.1435273,58.7798396 23.5066515,58.3726781 C21.8245281,57.9537303 20.1731731,57.5587122 18.4052603,57.7094334 C18.0259048,57.7419349 17.0843935,58.7491239 17.055797,58.8176985 C17.0047578,58.9384183 16.8472963,59.0584238 16.7119156,59.0937826 C16.1200774,59.2487897 15.5188278,59.3677237 14.9240939,59.5088016 C13.5065783,59.8456028 12.6711273,60.7106425 12.4933949,62.1542802 C12.4724,62.3214307 12.4372879,62.4800094 12.3952981,62.6357308 C12.5599993,62.737164 12.7210806,62.8435975 12.8778181,62.9557455 C12.9697612,62.7678797 13.0461391,62.5678706 13.1055039,62.3521464 C13.4175311,61.2235232 14.2392268,60.6920702 15.3548507,60.5909941 C16.6036834,60.4774175 17.7294427,60.1149009 18.7661549,59.3920106 C19.6457675,58.7776967 20.6556931,58.5951883 21.6898713,59.0269938 C22.8637741,59.516302 24.090164,59.7598846 25.3513041,59.772028 C27.4764916,59.7920289 29.3457588,59.1912871 30.5797504,57.3472739 C31.1683306,56.4693765 31.9545523,56.0572147 32.999952,55.9786397 C34.4666969,55.8686346 35.85815,56.2657957 37.2619103,56.5493801 C37.9576368,56.6893866 38.2417915,57.3951332 37.9967307,58.078736 C37.5533046,59.3173643 33.6515168,63.2961183 33.5878083,63.611847 C33.4270889,64.4183126 33.5530582,65.166204 33.8111502,65.9173099 C34.2317716,67.1395089 34.2028131,67.3091595 33.166825,68.0741946 C32.3997883,68.6406492 32.0740058,69.3628252 32.1568994,70.2903677 C32.1836859,70.5900243 32.200699,70.8925382 32.201785,71.1939806 C32.2046808,71.961873 31.8691249,72.5740439 31.2428986,73.0069209 C30.8917775,73.2490749 30.5088022,73.478014 30.1059179,73.6090914 C29.1144533,73.931249 28.0954782,74.1705457 27.1018417,74.4862745 C25.12941,75.1120175 24.4478007,76.1713518 24.6765724,78.1753723 C24.7326794,78.6700379 24.7873384,79.1650606 24.8119531,79.6615119 C24.832224,80.0711736 24.8481512,80.484764 24.8238985,80.8922827 C24.8944847,80.8651386 24.9650709,80.8365658 25.036381,80.8101361 C25.0595478,80.6740584 25.0798187,80.5365521 25.0914021,80.3983315 C25.1750196,79.4479307 25.1254282,78.4861009 25.1435273,77.5292713 C25.1619883,76.5285111 25.72342,75.9081255 26.6345249,75.5873964 C27.1242845,75.4148885 27.6415547,75.3209557 28.1490513,75.2027359 C29.1115575,74.9770113 30.0885428,74.8027176 31.0358458,74.5284193 C32.3596085,74.1451874 33.091895,74.5148472 33.482472,75.8299076 C33.7890694,76.8592405 33.5686233,77.8307137 33.2048329,78.7968294 C32.813532,79.8383058 32.7650266,80.8644243 33.1552416,81.8901856 C33.4194873,82.0787657 33.6739596,82.2798464 33.9146767,82.4962849 C33.870877,82.2841323 33.8245435,82.072694 33.7756762,81.86197 C33.5606597,80.9362133 33.6410194,80.0665305 34.1459822,79.2436356 C34.9814332,77.8846447 35.2550904,76.4535076 34.74325,74.9037937 C34.3595507,73.7408832 33.8886141,72.5926162 33.945807,71.3304154 C33.9515987,71.2121957 33.889338,71.0889758 33.8484342,70.9721847 C33.4842819,69.9132076 33.5570399,69.6628389 34.5872364,69.1474581 C35.3792498,68.7510114 35.7698267,68.1181252 35.8603218,67.2977304 C35.9164288,66.7902071 35.8328113,66.269469 35.8671995,65.7583741 C35.9088272,65.1487032 35.8679234,64.4783153 36.1133462,63.9472196 C36.5857307,62.9243155 37.453036,62.2014252 38.4524642,61.6542572 C38.5462171,61.6035406 38.6461237,61.5574671 38.7474783,61.5228226 C39.0475601,61.4196036 40.0849962,60.1606173 40.0849962,60.1606173 C40.2725021,59.7055964 40.6134877,59.3516516 41.0261455,59.1294985 C41.4391652,59.3516516 41.7808748,59.7055964 41.9676568,60.1606173 C41.9676568,60.1606173 43.0054549,61.4196036 43.3051747,61.5228226 C43.4068912,61.5574671 43.5064359,61.6035406 43.6001888,61.6542572 C44.6003409,62.2014252 45.4669222,62.9243155 45.9393068,63.9472196 C46.1850915,64.4783153 46.1445497,65.1487032 46.1858155,65.7583741 C46.2205656,66.269469 46.1365861,66.7902071 46.1919692,67.2977304 C46.2824643,68.1181252 46.6734032,68.7510114 47.4661405,69.1474581 C48.495975,69.6628389 48.5683711,69.9132076 48.2045807,70.9721847 C48.1636769,71.0889758 48.1014163,71.2121957 48.106484,71.3304154 C48.1636769,72.5926162 47.6934643,73.7408832 47.3097649,74.9037937 C46.7982865,76.4535076 47.0715818,77.8846447 47.9070328,79.2436356 C48.4119955,80.0665305 48.4923552,80.9362133 48.2773388,81.86197 C48.2281095,82.072694 48.1817759,82.2841323 48.1379763,82.4962849 C48.3786933,82.279132 48.6335276,82.0784085 48.8977734,81.8901856 C49.2876264,80.8644243 49.239121,79.8383058 48.8470961,78.7968294 C48.4840297,77.8307137 48.2639455,76.8592405 48.570181,75.8299076 C48.960758,74.5148472 49.6930445,74.1451874 51.0168072,74.5284193 C51.9644721,74.8027176 52.9410955,74.9770113 53.9036017,75.2027359 C54.4107363,75.3209557 54.9287304,75.4148885 55.4181281,75.5873964 C56.329233,75.9081255 56.8906647,76.5285111 56.9094877,77.5292713 C56.9279487,78.4861009 56.8779954,79.4479307 56.9608889,80.3983315 C56.9728343,80.5365521 56.9931052,80.6740584 57.0162719,80.8101361 C57.0875821,80.8365658 57.1578063,80.8651386 57.2287545,80.8922827 C57.2041398,80.484764 57.2204289,80.0711736 57.2410618,79.6615119 C57.2656765,79.1650606 57.3203356,78.6700379 57.3764425,78.1753723 C57.6048522,76.1713518 56.9239669,75.1120175 54.9511732,74.4862745 C53.9571748,74.1705457 52.9381997,73.931249 51.9470971,73.6090914 C51.5442128,73.478014 51.1605135,73.2490749 50.8104783,73.0069209 C50.1831661,72.5740439 49.8483342,71.961873 49.85123,71.1939806 C49.8523159,70.8925382 49.869329,70.5900243 49.8961156,70.2903677 C49.9786471,69.3628252 49.6528647,68.6406492 48.88619,68.0741946 C47.8494779,67.3091595 47.8208814,67.1395089 48.2415027,65.9173099 C48.4999568,65.166204 48.625926,64.4183126 48.4652067,63.611847 C48.4014981,63.2961183 44.4993484,59.3173643 44.0562842,58.078736 C43.8112234,57.3951332 44.0950161,56.6893866 44.7903807,56.5493801 C46.194503,56.2657957 47.586318,55.8686346 49.053425,55.9786397 C50.0973767,56.0572147 50.8843223,56.4693765 51.4721787,57.3472739 C52.7068941,59.1912871 54.5761614,59.7920289 56.7013489,59.772028 C57.9628509,59.7598846 59.1892409,59.516302 60.3631436,59.0269938 C61.3973219,58.5951883 62.4068855,58.7776967 63.2864981,59.3920106 C64.3235722,60.1149009 65.4489696,60.4774175 66.6981643,60.5909941 C67.8145121,60.6920702 68.6354839,61.2235232 68.9478731,62.3521464"/>
    <path d="M0.181448134,24.0518833 L0.186700389,0.113449081 L4.39776248,0.114053263 L4.39333987,20.2993159 L11.1784976,20.3012006 L11.1782341,24.0543673 L0.181448134,24.0518833 Z M13.8921879,24.0555622 L13.8979916,0.115472894 L24.9304572,0.118754714 L24.9286719,3.7024863 L17.8994726,3.70102043 L17.8982491,10.0580839 L24.4053791,10.059025 L24.4045599,13.3720716 L17.8968637,13.3711353 L17.895791,20.4384489 L25.2732203,20.4397128 L25.2717413,24.0575515 L13.8921879,24.0555622 Z M39.8522093,24.061008 L32.8619818,7.15346667 L32.7577934,7.15324978 L32.82301,24.0595421 L29.0643662,24.0589529 L29.0696036,0.118868366 L33.8372774,0.120254529 L40.7582018,17.129062 L40.8635226,17.1292693 L40.8325055,0.122008444 L44.4507249,0.122688008 L44.4460437,24.0616675 L39.8522093,24.061008 Z M60.245036,24.0646948 L53.2542423,7.15715825 L53.1494878,7.15694617 L53.2163979,24.062674 L49.4571929,24.0626397 L49.4624402,0.12365538 L54.2295429,0.12449623 L61.1516046,17.1338442 L61.255793,17.1340611 L61.2253322,0.12569523 L64.8441177,0.126369994 L64.8383141,24.0664593 L60.245036,24.0646948 Z M76.1883456,3.94949252 L76.0484924,3.95012819 L73.3669661,15.8177247 L78.7959913,15.8184546 L76.1883456,3.94949252 Z M80.5336842,24.0692649 L79.3165871,18.996143 L72.8439945,18.994909 L71.5894858,24.0669817 L67.4135273,24.0660799 L73.5442696,0.128521862 L78.867979,0.129594579 L84.8834721,24.0697931 L80.5336842,24.0692649 Z M97.379541,7.16647314 C97.3804287,6.4457612 97.2753989,5.84753183 97.0667361,5.37396629 C96.8592058,4.90039115 96.5857745,4.5286035 96.2504104,4.25911985 C95.913338,3.98855038 95.537334,3.79643317 95.1184402,3.68335194 C94.701816,3.57080162 94.2839973,3.51437735 93.8661213,3.51461964 L91.499275,3.51433265 L91.4980889,10.884233 L93.8649402,10.8850701 C94.8847228,10.8852258 95.7256245,10.5755098 96.3882115,9.95591753 C97.049095,9.33578952 97.3793544,8.40652644 97.379541,7.16647314 Z M97.6548279,24.0726347 L93.8288047,13.8595201 L91.4981993,13.859476 L91.4959327,24.0720418 L87.4586951,24.0705139 L87.4633713,0.130984248 L94.4925706,0.132450117 C95.5134906,0.133146263 96.4534745,0.263815345 97.3119414,0.522811822 C98.1704083,0.781808299 98.9073712,1.19312793 99.5217029,1.75733044 C100.13603,2.32098284 100.616913,3.03155806 100.964905,3.88740098 C101.313477,4.74488944 101.487458,5.7700054 101.486866,6.96494934 C101.486679,7.88976323 101.364345,8.70613177 101.119878,9.41570531 C100.87712,10.1263647 100.568842,10.7291988 100.198454,11.2252792 C99.8269224,11.720269 99.4143371,12.1204298 98.9623913,12.4251973 C98.5098695,12.7288693 98.0638484,12.9367591 97.6226392,13.0499812 L102.039724,24.0734154 L97.6548279,24.0726347 Z M111.266447,3.58439176 L111.261379,24.0760968 L107.155062,24.0746045 L107.160134,3.58344955 L102.530635,3.58364257 L102.532494,0.134148431 L115.895565,0.137474378 L115.893691,3.58531817 L111.266447,3.58439176 Z M124.276772,24.0779695 L124.282024,0.139535304 L135.313347,0.141726497 L135.312128,3.72545328 L128.282929,3.72398742 L128.281705,10.0810508 L134.789973,10.0825325 L134.788583,13.3950338 L128.28032,13.3941023 L128.278681,20.4614207 L135.654978,20.4626942 L135.655774,24.0816139 L124.276772,24.0779695 Z M156.360594,24.0854061 L156.434342,5.69251414 L156.330153,5.69229725 L151.383983,24.084141 L148.112861,24.0832692 L143.280213,5.68961716 L143.175459,5.68940508 L143.240999,24.0816661 L139.447823,24.0819199 L139.45306,0.141835348 L145.056496,0.143837168 L149.785557,17.658668 L149.923716,17.6585968 L154.556158,0.1452616 L160.438739,0.14654698 L160.43237,24.0866411 L156.360594,24.0854061 Z M182.321182,24.090847 L182.394919,5.69685485 L182.291873,5.69772859 L177.345708,24.0901225 L174.07402,24.0892554 L169.239669,5.69506771 L169.137179,5.69483642 L169.202724,24.0876476 L165.409543,24.0873512 L165.414219,0.147821602 L171.017078,0.148727994 L175.745017,17.6646686 L175.884309,17.6645879 L180.516746,0.15070254 L186.398199,0.152547636 L186.392947,24.0909818 L182.321182,24.090847 Z M191.368431,24.0928066 L191.374811,0.153812656 L202.405002,0.156013451 L202.405482,3.73972584 L195.376282,3.73825997 L195.37336,10.0953378 L201.881623,10.0962693 L201.880803,13.409316 L195.373107,13.4083796 L195.371463,20.4751479 L202.749464,20.4769572 L202.748556,24.0953412 L191.368431,24.0928066 Z M216.462583,7.19159679 C216.464032,6.47032994 216.359007,5.87265069 216.150344,5.39908514 C215.941115,4.9255244 215.66825,4.55373195 215.332886,4.2842483 C214.99638,4.01367403 214.618677,3.82157122 214.200921,3.70903051 C213.783726,3.59593488 213.366468,3.53895569 212.94973,3.53973849 L210.582878,3.53890138 L210.580565,10.9093615 L212.947416,10.9101986 C213.967765,10.9103494 214.809228,10.6000786 215.470121,9.98105079 C216.131571,9.36091798 216.462963,8.43164529 216.462583,7.19159679 Z M216.736171,24.0977728 L212.910714,13.8846533 L210.580675,13.8846044 L210.578414,24.0977203 L206.54061,24.0961972 L206.545847,0.1561127 L213.576179,0.157568968 C214.598226,0.157705398 215.53595,0.288943797 216.39555,0.547930673 C217.253455,0.807482065 217.989281,1.21826119 218.603613,1.78246369 C219.218505,2.34611129 219.699955,3.05668171 220.048518,3.91306994 C220.395953,4.77001789 220.569939,5.79568397 220.569342,6.9900778 C220.568584,7.91434637 220.446821,8.73126023 220.203486,9.44082416 C219.959595,10.1514931 219.650752,10.7543321 219.280358,11.2498624 C218.908832,11.7454022 218.497945,12.1455487 218.044867,12.4503258 C217.591779,12.7540026 217.144626,12.9619019 216.705681,13.0751049 L221.1222,24.0985439 L216.736171,24.0977728 Z M222.758049,24.0995275 L222.758562,20.7523738 L231.044353,3.74666414 L223.319255,3.74504717 L223.319332,0.160229752 L235.639402,0.163046782 L235.638852,3.44308176 L227.386461,20.4479581 L235.634756,20.44954 L235.634155,24.1020311 L222.758049,24.0995275 Z M245.729421,3.98525062 L245.590129,3.98533138 L242.908036,15.8529327 L248.3365,15.8542175 L245.729421,3.98525062 Z M250.075321,24.1044681 L248.857662,19.0319011 L242.385641,19.0312124 L241.131703,24.1038304 L236.954612,24.1029382 L243.085345,0.164279967 L248.410186,0.165343082 L254.425118,24.1060965 L250.075321,24.1044681 Z M263.336964,3.98944762 L263.199932,3.98895906 L260.517273,15.8565652 L265.945171,15.8578548 L263.336964,3.98944762 Z M267.682869,24.1092152 L266.466904,19.0360837 L259.994306,19.0342996 L258.740369,24.1069176 L254.56441,24.1060158 L260.694015,0.167917248 L266.017725,0.168989964 L272.033223,24.1097386 L267.682869,24.1092152 Z M274.60788,24.1104642 L274.613122,0.170929748 L278.824184,0.171533929 L278.819761,20.3567966 L285.606047,20.3581215 L285.605227,24.1123933 L274.60788,24.1104642 Z M4.87462639,33.0957156 C4.87478888,32.4833906 4.72526164,32.0373816 4.42549824,31.7598939 C4.12570026,31.4785554 3.74223907,31.3387662 3.2767984,31.3388617 L2.1437684,31.338566 L2.14348112,34.9629964 L3.27650124,34.9621919 C3.74195179,34.9631967 4.12500462,34.8053549 4.42453232,34.4892262 C4.72461139,34.1714424 4.87445895,33.7074906 4.87462639,33.0957156 Z M6.75599313,33.0715109 C6.75613495,33.6546751 6.66500985,34.1632418 6.48264749,34.6005117 C6.299714,35.0372362 6.05892854,35.4001802 5.76030593,35.6909941 C5.46225445,35.9823532 5.11880712,36.1998262 4.73161309,36.3378975 C4.34387758,36.4787242 3.94587949,36.5486677 3.53650126,36.5493881 L2.14300527,36.5491003 L2.14237499,41.1440089 L0.177546466,41.1430639 L0.179979875,29.6882444 L3.43580964,29.6886957 C3.81178775,29.6888087 4.19900764,29.7427416 4.59804044,29.8510399 C4.99595075,29.9604479 5.35377248,30.1455673 5.6692656,30.4091677 C5.98420736,30.6744233 6.24439896,31.0221163 6.4492841,31.4533519 C6.65361294,31.8856925 6.75584434,32.4245287 6.75599313,33.0715109 Z M11.6663938,41.1463271 L11.6688124,29.6898572 L16.9466655,29.6918689 L16.9473409,31.4061494 L13.5839257,31.4055099 L13.5823741,34.447886 L16.696657,34.4495376 L16.6961713,36.0345412 L13.5818982,36.0339899 L13.5811256,39.4152555 L17.1115809,39.4161291 L17.1112772,41.1474727 L11.6663938,41.1463271 Z M26.9193558,33.0595384 C26.9196598,32.7151381 26.8700821,32.4278269 26.7706622,32.2020056 C26.6701,31.9750937 26.5399646,31.7968462 26.3785675,31.6683779 C26.2182879,31.5382497 26.0379715,31.4468022 25.8381695,31.3923804 C25.6389436,31.3390541 25.4376852,31.3116023 25.2389336,31.3110869 L24.1064748,31.3113365 L24.1058742,34.8378419 L25.2377767,34.8386973 C25.7258698,34.8389599 26.1288183,34.6897519 26.4455194,34.3943836 C26.7610831,34.0984747 26.9195866,33.6526046 26.9193558,33.0595384 Z M27.0509072,41.1495678 L25.2199851,36.2621018 L24.1050731,36.2616525 L24.1042355,41.1486957 L22.1722508,41.1480224 L22.1752504,29.693198 L25.5386558,29.6927373 C26.0267588,29.6941001 26.4763384,29.7563068 26.8868333,29.8799122 C27.2984605,30.003508 27.6501728,30.2018829 27.9447516,30.4695118 C28.2388037,30.7415463 28.4688984,31.0795918 28.6356563,31.4896945 C28.8018579,31.9009023 28.8849703,32.3914869 28.8855696,32.9625438 C28.8855887,33.4059694 28.8268064,33.7959783 28.7098183,34.1358664 C28.5922591,34.4752092 28.445941,34.7647316 28.2685792,35.0022524 C28.0912126,35.2392231 27.8936143,35.4301522 27.677488,35.5755755 C27.4602193,35.7199082 27.2465237,35.8207482 27.0363714,35.874795 L29.1493609,41.1499299 L27.0509072,41.1495678 Z M38.5915322,31.9136216 C38.1589043,31.406195 37.6153118,31.152781 36.9607398,31.1517293 C36.7716134,31.1511323 36.5878644,31.1818486 36.4117327,31.2411084 C36.2333363,31.3003874 36.0716805,31.3952847 35.9284539,31.5246855 C35.7840901,31.6535457 35.67008,31.8206596 35.5864189,32.0254768 C35.5038999,32.2313847 35.4613452,32.4738142 35.4621715,32.7549369 C35.4608726,33.2407357 35.6120123,33.6141105 35.9105198,33.8778549 C36.2107358,34.1426852 36.6048203,34.3935158 37.0927782,34.6308968 C37.3805488,34.7709472 37.6758824,34.9334898 37.975367,35.1169032 C38.2742855,35.3003214 38.5469242,35.5208228 38.7910382,35.7806273 C39.0362747,36.0393218 39.2343763,36.3457295 39.3904635,36.7025576 C39.5454036,37.0577449 39.6233639,37.4790536 39.6226262,37.9642975 C39.6231366,38.5254523 39.5319028,39.0219165 39.3478023,39.4547998 C39.1647997,39.8838228 38.9200558,40.2473505 38.6152694,40.5453686 C38.3093308,40.8411959 37.9506557,41.0653999 37.5409278,41.2163158 C37.1300577,41.3661411 36.6975815,41.4429789 36.2423322,41.4429879 C35.5877651,41.4424864 34.9819059,41.3172365 34.4270391,41.0694197 C33.8721722,40.8216029 33.4288323,40.5084721 33.0953308,40.1311421 L34.1776388,38.7080641 C34.4340182,39.0095763 34.7413475,39.2468385 35.1013204,39.419286 C35.4618594,39.5917287 35.831824,39.6788173 36.2094907,39.6778157 C36.6307737,39.6786448 36.9805796,39.5386899 37.2583521,39.259056 C37.5349774,38.9777813 37.6747048,38.5848855 37.6741026,38.0765464 C37.6753175,37.5813957 37.5092691,37.1872414 37.1754159,36.896839 C36.8426753,36.6042266 36.4206747,36.3343772 35.9099704,36.0861859 C35.5881397,35.9365215 35.2854012,35.7690903 35.0028873,35.5838825 C34.719832,35.4014302 34.4704267,35.1829323 34.2541251,34.9305943 C34.0372425,34.6766107 33.8652694,34.3793342 33.7370884,34.0404246 C33.6105912,33.6998503 33.5463528,33.2932795 33.5466083,32.8173923 C33.5475247,32.2259668 33.6437356,31.7162567 33.838067,31.2876879 C34.0324329,30.8629698 34.2885993,30.5103483 34.6043014,30.2298427 C34.921131,29.9487773 35.2793931,29.7416316 35.6779405,29.606765 C36.0787576,29.4724293 36.4835697,29.4046286 36.8940803,29.4038986 C37.4937222,29.4043157 38.0291074,29.5004547 38.5007624,29.6879098 C38.9724422,29.8781154 39.3690236,30.1547822 39.6911075,30.521756 L38.5915322,31.9136216 Z M50.595885,35.4104059 C50.5957481,34.8277918 50.5495001,34.2807787 50.4554325,33.7682807 C50.3602424,33.2568926 50.2220636,32.8135381 50.0392223,32.4409823 C49.8558148,32.0684314 49.62839,31.7754761 49.3557908,31.5593755 C49.0843239,31.3432654 48.7713714,31.2364379 48.415776,31.2361521 C48.0499943,31.2365028 47.730466,31.3431916 47.4577773,31.5584142 C47.1862259,31.7741773 46.9595437,32.0682322 46.7760222,32.4394931 C46.5925155,32.8124044 46.4566398,33.255882 46.3678091,33.7677302 C46.277851,34.2801381 46.2340653,34.8268143 46.2330649,35.4088878 C46.2326356,35.9915067 46.2777562,36.5390796 46.3667182,37.0505205 C46.4557,37.5641619 46.5916338,38.009736 46.7745196,38.3872428 C46.9579667,38.7641947 47.1842986,39.0615605 47.4557655,39.2776707 C47.7283498,39.4921209 48.0475452,39.6005459 48.4138932,39.6001904 C48.7808222,39.6014804 49.0991983,39.4926007 49.371887,39.2773782 C49.6428772,39.06217 49.8712333,38.7653501 50.0535631,38.3874974 C50.2370351,38.0107353 50.3740185,37.5644975 50.4628492,37.0526494 C50.551675,36.5402511 50.5960219,35.99302 50.595885,35.4104059 Z M52.6614998,35.4110464 C52.6611449,36.3171564 52.563211,37.1393698 52.3694066,37.8787723 C52.1755874,38.6165245 51.8936365,39.2504944 51.5275024,39.7789979 C51.1619296,40.3069465 50.7143346,40.7178572 50.1875038,41.0067549 C49.6584429,41.2995226 49.0680469,41.4459188 48.4140461,41.4454124 C47.7470229,41.4450165 47.1540032,41.299302 46.6321461,41.0071928 C46.1097376,40.7167387 45.6655281,40.3067879 45.3000937,39.7784357 C44.9346543,39.2495334 44.6532042,38.6153893 44.4597167,37.8770701 C44.2656481,37.1371053 44.1688036,36.3154431 44.1691585,35.4093331 C44.1683909,34.5043329 44.2640749,33.6837891 44.4522718,32.9504859 C44.6404637,32.2166325 44.9190422,31.585442 45.2851714,31.0563884 C45.6518716,30.5278801 46.0995062,30.1213703 46.6263715,29.8363233 C47.1532171,29.549076 47.7498708,29.4059277 48.4168939,29.4063236 C49.0708948,29.40683 49.6621863,29.5492582 50.1890946,29.8363732 C50.7171304,30.1229284 51.1630088,30.5295642 51.5295805,31.0584569 C51.8961474,31.5867994 52.1764354,32.2176524 52.3698884,32.9521209 C52.5644639,33.6854795 52.6607372,34.5065964 52.6614998,35.4110464 Z M62.933568,41.1567026 L59.5880847,33.0658665 L59.5382602,33.066289 L59.5690204,41.1560728 L57.7706708,41.1559168 L57.7736605,29.6999922 L60.0550075,29.700454 L63.366403,37.8416434 L63.4173599,37.8412113 L63.4014421,29.7017876 L65.1329767,29.7019599 L65.1311144,41.1573248 L62.933568,41.1567026 Z M73.5081169,31.5328355 L73.4412969,31.5323018 L72.1582668,37.2114385 L74.7555712,37.211972 L73.5081169,31.5328355 Z M75.587147,41.1594426 L75.004782,38.7326908 L71.9080608,38.7319907 L71.3075712,41.1588692 L69.3093327,41.1576573 L72.243712,29.7032846 L74.7911869,29.7036905 L77.6686101,41.1594426 L75.587147,41.1594426 Z M81.8479706,41.1608217 L81.8503991,29.705452 L83.8661796,29.7054148 L83.8634768,39.3650775 L87.1091201,39.3661654 L87.1099557,41.1613175 L81.8479706,41.1608217 Z M97.0526876,31.3590555 L97.050723,41.1639532 L95.0858945,41.1630082 L95.0884302,31.3586559 L92.8744594,31.3576228 L92.873791,29.7071603 L99.2682497,29.7090568 L99.2677858,31.3595289 L97.0526876,31.3590555 Z M108.025242,33.0765814 C108.025541,32.731631 107.975402,32.4448747 107.874854,32.2196131 C107.776557,31.992682 107.645846,31.8133392 107.485586,31.6854114 C107.323603,31.5547474 107.143857,31.4638452 106.94406,31.4099736 C106.74482,31.3549969 106.544137,31.3286406 106.345401,31.3297755 L105.211799,31.3289345 L105.211204,34.8559899 L106.343668,34.8562904 C106.832322,34.8559982 107.234709,34.7073451 107.550844,34.4119815 C107.866398,34.1149724 108.026039,33.6696429 108.025242,33.0765814 Z M108.157925,41.1666013 L106.326447,36.2802403 L105.210969,36.2797957 L105.209555,41.1657435 L103.277575,41.1656203 L103.280565,29.7096958 L106.643985,29.7108853 C107.13264,29.7105931 107.583352,29.7727901 107.99329,29.8975006 C108.40378,30.0205559 108.756054,30.2183759 109.050642,30.4871049 C109.343557,30.758599 109.574789,31.0971849 109.740976,31.5067424 C109.908305,31.9173904 109.990295,32.4090849 109.989762,32.9801514 C109.9892,33.4219314 109.932131,33.8135763 109.815704,34.1529095 C109.699277,34.4922426 109.551261,34.7817794 109.37446,35.0187453 C109.197094,35.255716 109.000066,35.4471905 108.782237,35.5920781 C108.566671,35.7369464 108.351838,35.837246 108.14112,35.8912975 L110.254676,41.1664277 L108.157925,41.1666013 Z M117.799885,31.5418392 L117.732498,31.5413103 L116.450034,37.2204421 L119.046773,37.2209805 L117.799885,31.5418392 Z M119.878353,41.1690012 L119.295988,38.7422494 L116.199272,38.7420994 L115.599339,41.1678729 L113.602243,41.1677517 L116.533786,29.7128528 L119.081827,29.7132539 L121.959817,41.1690012 L119.878353,41.1690012 Z M126.140304,41.1698206 L126.142177,29.715556 L128.139263,29.7145769 L128.138543,41.1710325 L126.140304,41.1698206 Z M138.944504,41.1729339 L135.59846,33.0826527 L135.548625,33.081975 L135.579951,41.1717539 L133.782168,41.1715932 L133.78403,29.7162283 L136.065377,29.7166901 L139.377895,37.8567696 L139.426597,37.857457 L139.412368,29.7169187 L141.143913,29.7181912 L141.142041,41.1724559 L138.944504,41.1729339 Z M146.786242,41.174112 L146.78867,29.7187423 L148.786904,29.7194041 L148.783914,41.1753287 L146.786242,41.174112 Z M159.591007,41.1772205 L156.244402,33.0874943 L156.1957,33.0868069 L156.22646,41.1765907 L154.428105,41.1758846 L154.430534,29.7205149 L156.711886,29.7215268 L160.023266,37.8610658 L160.073101,37.8617436 L160.059438,29.7212005 L161.790416,29.7224778 L161.787421,41.1778523 L159.591007,41.1772205 Z M173.169096,41.1638691 C172.674057,41.3358642 172.08425,41.4217382 171.395145,41.4215294 C170.696421,41.4219525 170.068317,41.2787361 169.51367,40.9924065 C168.959039,40.7077272 168.489932,40.2996379 168.108083,39.7719751 C167.725082,39.2421214 167.430644,38.6119385 167.225306,37.878121 C167.018274,37.144868 166.916965,36.3303957 166.917975,35.434183 C166.919202,34.5621752 167.017855,33.7570106 167.21682,33.0247163 C167.418615,32.2923981 167.706784,31.6572752 168.084769,31.12427 C168.461601,30.5890739 168.917654,30.1742404 169.450083,29.8781431 C169.983077,29.5820411 170.580804,29.4322819 171.248955,29.4321181 C171.946552,29.4322548 172.552957,29.5552994 173.063622,29.7990898 C173.574823,30.0395747 173.990131,30.3837518 174.312891,30.8260913 L173.162629,32.1853773 C172.718171,31.5586671 172.11912,31.2457564 171.364899,31.2455496 C170.954384,31.2457295 170.595843,31.3588008 170.29097,31.5841991 C169.984419,31.8118122 169.732347,32.1159852 169.53252,32.500038 C169.332673,32.8818903 169.182652,33.3265881 169.083586,33.8335717 C168.981698,34.3416795 168.932127,34.8746509 168.933199,35.4352508 C168.93277,36.0178697 168.981853,36.5654089 169.08271,37.0772991 C169.181308,37.5897587 169.331431,38.0390636 169.531342,38.4208273 C169.730706,38.8047962 169.983097,39.1035915 170.288536,39.3194136 C170.594535,39.5346808 170.957883,39.6416312 171.379161,39.6419102 C171.645855,39.6418495 171.887941,39.6128391 172.104272,39.5532385 C172.320042,39.4941927 172.494307,39.4162434 172.628205,39.3199311 L172.62935,36.3584314 L171.196221,36.3584796 L171.196399,34.676101 L174.444868,34.6766147 L174.442672,40.4840805 C174.086775,40.7654772 173.661861,40.990793 173.169096,41.1638691 Z M187.282472,32.2207974 C187.2818,31.8307425 187.205335,31.5128505 187.051363,31.2654855 C186.896245,31.0164798 186.672035,30.8923952 186.374772,30.8932652 C186.078065,30.8930303 185.838065,31.028203 185.657012,31.2960137 C185.474851,31.5665846 185.383818,31.8963498 185.382772,32.2842186 C185.383507,32.6181571 185.439495,32.9257698 185.54904,33.207071 C185.65914,33.4872672 185.82426,33.778 186.043832,34.0792742 C186.373715,33.864667 186.660764,33.6091613 186.910626,33.3110587 C187.157681,33.0157307 187.282934,32.6504654 187.282472,32.2207974 Z M185.333124,36.086768 C185.088733,36.2373824 184.860887,36.4648783 184.650122,36.7659503 C184.439367,37.0681225 184.333616,37.4612804 184.333449,37.9470696 C184.332911,38.517586 184.46437,38.9692498 184.724955,39.297684 C184.985554,39.6277686 185.326193,39.7910274 185.747476,39.7918565 C186.103632,39.7915874 186.3981,39.6686064 186.63148,39.4267595 C186.863717,39.183822 187.030685,38.9238329 187.130635,38.6413056 L185.333124,36.086768 Z M188.963136,41.1828928 L188.112798,40.0006656 C187.890988,40.3959079 187.57128,40.7347641 187.155387,41.0188701 C186.740031,41.2996706 186.209617,41.4417071 185.56468,41.441674 C184.621342,41.4419705 183.866748,41.1479836 183.300329,40.5597181 C182.734482,39.9719979 182.45181,39.1387077 182.452312,38.0598475 C182.452597,37.2720216 182.643735,36.6140648 183.026865,36.0865175 C183.409418,35.5578747 183.884613,35.1307755 184.451337,34.8074298 C184.141141,34.3770872 183.911497,33.9631164 183.768672,33.5698656 C183.62472,33.1771744 183.552352,32.7481162 183.552711,32.2837814 C183.552697,31.8409059 183.624418,31.4414347 183.768444,31.085913 C183.912466,30.7298411 184.108505,30.4283439 184.358806,30.1792015 C184.606301,29.9328336 184.906374,29.7404855 185.254536,29.6065962 C185.603249,29.4710518 185.977492,29.4040605 186.374414,29.4034457 C186.762848,29.4034531 187.116176,29.4664759 187.436642,29.5902945 C187.758246,29.7146536 188.036737,29.8932936 188.267581,30.1257027 C188.499544,30.3564519 188.682717,30.6398796 188.815954,30.974345 C188.94862,31.3082651 189.012601,31.68623 189.012974,32.1059959 C189.012883,32.4740511 188.95304,32.8090533 188.831743,33.110467 C188.708747,33.4118951 188.548136,33.6861344 188.348235,33.9359497 C188.14831,34.1830145 187.914797,34.4100083 187.647666,34.6136305 C187.380561,34.8200032 187.104789,35.0071939 186.815295,35.1796468 L188.162952,37.0739604 L189.064042,34.954821 L191.028295,34.9546706 L189.278907,38.4514414 L191.260927,41.185966 L188.963136,41.1828928 Z M204.67151,41.0574018 C204.189334,41.3376685 203.580199,41.4781719 202.848054,41.4772278 C202.182735,41.4773675 201.579464,41.3251381 201.042807,41.0243519 C200.503314,40.7230396 200.047707,40.304933 199.676552,39.7700275 C199.30484,39.236227 199.016034,38.6026954 198.811267,37.8694232 C198.604792,37.1350651 198.503596,36.3332455 198.503095,35.4579515 C198.504313,34.5848436 198.606353,33.7785499 198.81318,33.0390369 C199.017752,32.3006434 199.311002,31.663827 199.686155,31.1308458 C200.06413,30.5967403 200.523004,30.1807826 201.061099,29.8851874 C201.598057,29.5890518 202.195784,29.4392926 202.850912,29.4392392 C203.528693,29.4395439 204.121505,29.5621536 204.632165,29.8053939 C205.143371,30.0464289 205.558718,30.395007 205.881578,30.8483488 L204.732447,32.2076252 C204.276572,31.5705588 203.6888,31.252601 202.966291,31.2526755 C202.567089,31.2516592 202.217587,31.3624532 201.917756,31.581757 C201.61796,31.8049116 201.368113,32.1046645 201.168227,32.4821159 C200.969467,32.8590076 200.81832,33.3042652 200.719307,33.8173 C200.618592,34.3297991 200.566874,34.8759924 200.568144,35.4585969 C200.567611,36.0296634 200.61892,36.5727825 200.717507,37.0841418 C200.817236,37.5965918 200.96733,38.042596 201.167201,38.4199588 C201.366502,38.7967762 201.618903,39.0966717 201.92439,39.317995 C202.230434,39.5382132 202.587589,39.6490671 202.998666,39.6483323 C203.387105,39.6488898 203.72258,39.5525188 204.005653,39.3586642 C204.288155,39.1642644 204.524971,38.9267896 204.713827,38.6451589 L205.8626,39.9568931 C205.550153,40.4106703 205.154252,40.7771302 204.67151,41.0574018 Z M216.436644,35.4461805 C216.435936,34.8630211 216.390249,34.3154531 216.29562,33.80351 C216.200425,33.2915718 216.062812,32.8482125 215.880537,32.475652 C215.695431,32.1031154 215.468577,31.8107054 215.196539,31.59405 C214.925073,31.3779398 214.61212,31.2711123 214.257096,31.2713718 C213.889606,31.2706367 213.570082,31.3778757 213.299097,31.5936339 C213.026418,31.8099567 212.79917,32.1040164 212.615648,32.4752774 C212.432137,32.8476386 212.29569,33.2905708 212.208553,33.8018545 C212.119166,34.3148077 212.074253,34.8620436 212.073823,35.4446625 C212.073394,36.0272814 212.118515,36.5748542 212.206911,37.0863 C212.294189,37.5994057 212.431255,38.0449702 212.613565,38.4213816 C212.797588,38.7994289 213.025614,39.0962301 213.297647,39.3123355 C213.567966,39.5268049 213.887738,39.6363253 214.254647,39.6354149 C214.621005,39.6361596 214.939381,39.5272799 215.211513,39.3131624 C215.484192,39.0968396 215.711421,38.8005794 215.894878,38.422167 C216.07835,38.0454049 216.21364,37.5997317 216.303032,37.0873286 C216.391301,36.5760353 216.435077,36.0282589 216.436644,35.4461805 Z M218.501687,35.4462758 C218.501904,36.3529311 218.402822,37.1735037 218.209599,37.9145518 C218.014642,38.6517635 217.734385,39.2851688 217.368256,39.8142224 C217.001556,40.3427307 216.553951,40.7525412 216.028257,41.0419794 C215.499763,41.3347424 214.908224,41.4800479 214.253662,41.4800964 C213.587777,41.480241 212.994757,41.3345266 212.473461,41.0418624 C211.94992,40.751418 211.506282,40.3420124 211.140842,39.8131101 C210.774837,39.2842127 210.493392,38.6506187 210.299904,37.9122994 C210.105264,37.1717893 210.008425,36.3506773 210.008214,35.4445721 C210.009706,34.5390026 210.103125,33.718478 210.293587,32.9851555 C210.481217,32.251857 210.759796,31.6206665 211.125925,31.0916129 C211.491488,30.5625641 211.940265,30.1571449 212.46712,29.8709978 C212.993405,29.5843053 213.590058,29.441157 214.255949,29.4415626 C214.910516,29.4420641 215.502374,29.5844875 216.029282,29.8716025 C216.556176,30.1570671 217.003191,30.5642434 217.369763,31.0931361 C217.735202,31.6220384 218.016052,32.2523365 218.210637,32.9867953 C218.40408,33.7201636 218.50091,34.5401754 218.501687,35.4462758 Z M226.344221,31.5644458 L226.27684,31.564467 L224.994937,37.2430439 L227.590548,37.244142 L226.344221,31.5644458 Z M228.423251,41.1910528 L227.840886,38.7643011 L224.744175,38.7647012 L224.144808,41.1904698 L222.144885,41.1909228 L225.079255,29.7354498 L227.626158,29.7353104 L230.504724,41.1921091 L228.423251,41.1910528 Z M240.337306,41.0647249 C239.854564,41.3449965 239.246561,41.4854902 238.514422,41.4850962 C237.848536,41.4852408 237.244133,41.333021 236.707481,41.0327849 C236.168545,40.7303675 235.713498,40.3117061 235.342348,39.7773506 C234.969508,39.2441099 234.68183,38.6100186 234.475931,37.8767559 C234.271725,37.1429288 234.169392,36.3405687 234.168896,35.4658248 C234.170109,34.5921667 234.272149,33.785873 234.477844,33.0463697 C234.683558,32.3090668 234.97567,31.6717099 235.35365,31.1381545 C235.729926,30.6040634 236.188795,30.1875556 236.726891,29.8919605 C237.263853,29.5963749 237.862141,29.4460608 238.516713,29.4471125 C239.194494,29.4474172 239.788434,29.5694672 240.298522,29.8121621 C240.80805,30.055412 241.223948,30.4023349 241.546251,30.8567818 L240.397111,32.2149579 C239.942363,31.5773318 239.353469,31.2604839 238.632653,31.2599939 C238.233456,31.2595276 237.883389,31.3703265 237.583567,31.5907305 C237.283751,31.8116846 237.034476,32.1119828 236.834028,32.4899892 C236.634126,32.8657903 236.484682,33.3115835 236.383971,33.8246327 C236.283256,34.3371318 236.234369,34.8833011 236.233945,35.4664701 C236.233417,36.0380867 236.283589,36.5806653 236.383298,37.0909148 C236.483038,37.604465 236.633126,38.0499191 236.833564,38.4272771 C237.032298,38.8040994 237.285265,39.1039901 237.590187,39.3253181 C237.89624,39.5466366 238.253385,39.6563903 238.663901,39.6562104 C239.051764,39.6556725 239.388371,39.5592918 239.670883,39.3659922 C239.954512,39.1710327 240.190201,38.9341176 240.379628,38.6530321 L241.527269,39.964776 C241.217648,40.4179791 240.820614,40.7844486 240.337306,41.0647249 Z M251.701035,41.1961351 L251.701842,36.1165375 L248.171391,36.116214 L248.170584,41.1958116 L246.189912,41.1961013 L246.192331,29.7396314 L248.173013,29.7404419 L248.172822,34.3843107 L251.701579,34.3851987 L251.704034,29.7413107 L253.684711,29.7415711 L253.681722,41.1974957 L251.701035,41.1961351 Z M259.325913,41.1980517 L259.328346,29.7432321 L261.32657,29.7427936 L261.324713,41.1987086 L259.325913,41.1980517 Z M272.130679,41.2011601 L268.7852,33.1108742 L268.735366,33.1101964 L268.767253,41.1994205 L266.968914,41.2003647 L266.971332,29.7438948 L269.252684,29.7449067 L272.564065,37.8844457 L272.613899,37.8851235 L272.599114,29.7456902 L274.33122,29.7464079 L274.328781,41.2006773 L272.130679,41.2011601 Z M285.711027,41.1872394 C285.214865,41.3603443 284.623916,41.4451277 283.935944,41.4449094 C283.237219,41.4453324 282.609682,41.3021112 282.054469,41.0157864 C281.49871,40.7316668 281.030735,40.3235679 280.647744,39.7948145 C280.26589,39.2666015 279.971452,38.6364187 279.767237,37.9014913 C279.561343,37.1687788 279.458896,36.353766 279.45992,35.4592036 C279.459439,34.5861101 279.558669,33.7820409 279.759888,33.0486272 C279.958842,32.3152327 280.247583,31.6806551 280.625567,31.1476499 C281.003542,30.6135444 281.458448,30.1970702 281.990886,29.9020732 C282.52389,29.6070714 283.122745,29.4567524 283.789763,29.4565982 C284.48736,29.4567349 285.093756,29.5786793 285.604416,29.8219196 C286.115632,30.0640548 286.530924,30.4065816 286.852563,30.850031 L285.703423,32.2082071 C285.259536,31.5820422 284.659919,31.2691363 283.905707,31.2700298 C283.494055,31.2696691 283.135509,31.3821903 282.831208,31.6081339 C282.525779,31.8346372 282.273151,32.1399152 282.074456,32.5239584 C281.873476,32.9058204 281.723456,33.3505182 281.623818,33.8569564 C281.523624,34.3644997 281.472931,34.8985809 281.472314,35.4602954 C281.473573,36.0417997 281.523784,36.5887792 281.622381,37.1012388 C281.723243,37.6136791 281.872224,38.0618934 282.07214,38.4442072 C282.272637,38.8281666 282.523901,39.1275216 282.829895,39.3422386 C283.134206,39.5586205 283.497549,39.6650207 283.918827,39.6652997 C284.186654,39.6652294 284.42874,39.6362191 284.643948,39.5777282 C284.860845,39.5181227 285.036243,39.4401638 285.169003,39.343311 L285.170159,36.3829115 L283.737025,36.3824097 L283.737202,34.700031 L286.984544,34.7011045 L286.98347,40.5074604 C286.627574,40.7888571 286.203802,41.0152635 285.711027,41.1872394 Z" transform="translate(112 27)"/>
  </g>
</svg>
