<svg xmlns="http://www.w3.org/2000/svg" width="160" height="24" viewBox="0 0 160 24">
	<g fill="#FFC857" fill-rule="nonzero">
		<polygon points="10 15.27 16.18 19 14.54 11.97 20 7.24 12.81 6.63 10 0 7.19 6.63 0 7.24 5.46 11.97 3.82 19" transform="translate(2 2)" />
		<polygon points="10 15.27 16.18 19 14.54 11.97 20 7.24 12.81 6.63 10 0 7.19 6.63 0 7.24 5.46 11.97 3.82 19" transform="translate(36 2)" />
		<polygon points="10 15.27 16.18 19 14.54 11.97 20 7.24 12.81 6.63 10 0 7.19 6.63 0 7.24 5.46 11.97 3.82 19" transform="translate(70 2)" />
		<polygon points="10 15.27 16.18 19 14.54 11.97 20 7.24 12.81 6.63 10 0 7.19 6.63 0 7.24 5.46 11.97 3.82 19" transform="translate(104 2)" />
		<polygon points="10 15.27 16.18 19 14.54 11.97 20 7.24 12.81 6.63 10 0 7.19 6.63 0 7.24 5.46 11.97 3.82 19" transform="translate(138 2)" />
	</g>
</svg>
