<svg xmlns="http://www.w3.org/2000/svg" width="241" height="102" viewBox="0 0 241 102">
  <path fill="none" stroke="#272838" stroke-linecap="round" stroke-linejoin="round" stroke-width="1.62" d="M64.0810924,15.662224 C68.347835,13.120355 69.4753591,11.3210733 71.6848539,8.6405833 C73.8943486,5.96009328 73.9083284,2.47276421 72.0116902,1.46703824 C70.115052,0.461312275 68.1178791,2.81836125 67.3433082,4.72936559 C66.5687373,6.64036993 50.8471725,37.3670325 43.6434892,47.3894912 C36.4398058,57.4119499 10.6926889,95.2216478 4.38041382,100.226749 C20.5863356,82.3304949 30.1956526,72.9170262 33.2083648,71.9863426 C30.4098513,75.4841352 28.5474355,77.9885184 27.6211175,79.4994921 C26.0055213,82.1347894 24.5535167,84.0893452 24.9217499,86.5390956 C25.9491425,93.3740455 35.6122613,91.571425 41.2650389,90.3396759 C46.9178165,89.1079268 64.058442,83.0669882 77.603662,77.2619061 C91.1488821,71.4568239 108.047582,64.3201442 117.230495,58.2994126 C126.413408,52.278681 126.663907,49.8752283 126.803962,48.0218782 C126.944017,46.1685282 124.208064,39.8261164 110.705661,38.1607574 C97.2032578,36.4953984 68.4150487,36.6196437 51.4281547,39.4383294 C34.4412607,42.2570152 19.4024009,44.7106381 10.0619632,48.4483258 C0.721525522,52.1860135 0.824864015,52.8836758 0.865725654,53.6861056 C0.906587293,54.4885353 1.13132631,56.5632249 23.1219945,55.3939617 C45.1126627,54.2246985 124.034846,48.3196537 128.180526,48.0218782 C132.326205,47.7241027 141.903226,46.8458273 141.922473,45.6744982 C141.941719,44.5031692 130.676639,43.4510684 120.592993,43.5980379 C110.509347,43.7450074 77.1668419,45.1730903 58.2348747,48.4483258 C39.3029075,51.7235613 25.1600428,54.6127806 20.3647222,56.4259944 C15.5694015,58.2392082 8.12814175,59.6867691 8.02184227,62.0344442 C7.91554279,64.3821193 20.5977519,63.4392127 26.4756099,63.1122204 C32.3534678,62.785228 72.5678349,59.544798 81.037742,58.7949088 C89.5076491,58.0450196 135.058605,56.7878108 151.974436,57.519707 C168.890266,58.2516032 219.956195,61.025536 239.859476,65.990193"/>
</svg>
